<?xml version="1.0" encoding="UTF-8"?><svg id="a" xmlns="http://www.w3.org/2000/svg" viewBox="0 0 173.3 141.5"><defs><style>.b{fill:#fff;}</style></defs><path class="b" d="M141,0c4.6,1.1,8.4,2.2,11.4,3s5.7,2,8,3.4c2.3,1.4,4.4,3.2,6.3,5.4,1.9,2.2,4.1,5.2,6.7,9.3-12.7,22.1-24.2,42.5-34.7,61-10.5,18.5-21.9,36.7-34.3,54.5-4,.9-7.5,1.8-10.6,2.8-3,1-6,1.7-8.8,1.9-2.9,.3-5.7,0-8.4-.6-2.7-.7-5.7-2.2-8.8-4.5-11.8-19.5-23.5-39.1-35.1-58.6C20.9,58.1,10.1,38.4,0,18.5c3.2-3.4,5.9-6.2,8.2-8.2,2.3-2,4.7-3.7,7.1-5,2.4-1.3,5.1-2.2,8-2.8,2.9-.6,6.6-.9,11.2-.9,10.1,17.2,19.4,33.1,28,47.6,8.6,14.5,16.7,29.1,24.1,43.8,8.9-15.8,17.8-31.6,26.7-47.4,8.9-15.8,18.1-31,27.6-45.7Z"/></svg>