<?xml version="1.0" encoding="UTF-8"?><svg id="a" xmlns="http://www.w3.org/2000/svg" viewBox="0 0 1567.3 497.3"><defs><style>.b{fill:#fff;}.c{fill:none;stroke:#402d1d;stroke-miterlimit:10;stroke-width:10.5px;}</style></defs><g><path class="c" d="M40.5,30.2c1.6-3.6,4.2-5.4,7.6-5.4s6.6,.8,9.5,2.4c10.4,4.6,20.4,9.6,30,15.1,9.6,5.5,19.6,10.7,30,15.6,8.8-5.5,17.2-11.4,25.1-17.6,8-6.2,16.4-11.9,25.1-17.1,15.3,3.6,29.9,9.2,43.7,16.8,13.8,7.7,27.9,14.6,42.2,20.8-.3,10.4-.4,23.3-.2,38.6,.2,15.3,.3,31.9,.5,49.8,.2,17.9,.4,36.5,.7,55.7,.3,19.2,.5,37.9,.5,56.2s0,35.4-.2,51.5c-.2,16.1-.6,29.9-1.2,41.3-15.6,8.8-30.6,18.4-44.9,28.8-14.3,10.4-29.6,19.4-45.9,26.9-8.8-3.6-17.1-7.9-24.9-12.9-7.8-5-16-9.4-24.4-12.9-1.6,16.6-2,33-1,49.3,1,16.3,.2,32.5-2.4,48.8-11.4,2.9-23,5.5-34.7,7.8-11.7,2.3-23.4,2.9-35.2,2,0-24.1,0-47.9,.2-71.5,.2-23.6-.6-47.4-2.2-71.5-5.2-2.6-10.5-5-15.9-7.3-5.4-2.3-10.7-4.9-15.9-7.8,3.6-7.8,8.6-14.7,15.1-20.8,6.5-6,12.5-12.3,18.1-18.8,0-32.5-.2-64.8-.5-96.7-.3-31.9-.2-64.1,.5-96.7-4.6-4.6-9.8-8-15.6-10.3-5.9-2.3-10.4-6-13.7-11.2,2.9-9.1,7.5-17.4,13.7-24.9,6.2-7.5,11.6-15.5,16.1-23.9ZM112.2,116.6c0,29.6,.2,59,.5,88.1,.3,29.1,.2,58.5-.5,88.1,.6,2.9,.8,6.3,.5,10.3-.3,3.9,1.3,6.3,4.9,7.3,11.4,5.5,22.4,11.5,33,17.8,10.6,6.3,21.7,12,33.4,16.8-1.3-2.3-2.1-9.8-2.4-22.5-.3-12.7-.4-27.8-.2-45.4,.2-17.6,.4-36.4,.7-56.4,.3-20,.6-38.7,1-55.9,.3-17.2,.4-31.8,.2-43.7-.2-11.9-.6-18.6-1.2-20.3-6.5-2.6-12.8-5.4-18.8-8.3-6-2.9-12.3-5.5-18.8-7.8-3.6,1-7.3,2.4-11.2,4.2-3.9,1.8-7.4,4-10.5,6.6-3.1,2.6-5.6,5.7-7.6,9.3-2,3.6-2.9,7.5-2.9,11.7Z"/><path class="c" d="M350,114.7c3.6-1.6,7.2-3.2,10.7-4.6,3.6-1.5,7.3-2.2,11.2-2.2s2.6,.2,3.9,.5c1.3,.3,2.8,.7,4.4,1,14,4.9,27.7,10,41.3,15.4,13.5,5.4,27.1,11,40.8,16.8v147.7c0,26.5-.3,53.3-1,80.3-13.4,6.8-26.7,13.7-40,20.5-13.4,6.8-27.3,13.2-42,19-2.6,1.3-5.2,2-7.8,2-3.9,0-9.6-1.3-17.1-3.9-7.5-2.6-15.5-5.6-23.9-9-8.5-3.4-17.2-7-26.1-10.7-9-3.7-16.8-6.8-23.7-9-.7-14.6-1-28.9-1-42.7V148.4c11.4-6.5,23-12.3,34.9-17.3,11.9-5,23.7-10.5,35.4-16.4Zm3.9,57.1c-.7,14-1,27.8-1,41.3v123.3c6.5,2.6,12.8,5.1,18.8,7.3,6,2.3,12.3,4.2,18.8,5.9v-84.7c0-25.9,.2-52.5,.5-79.8-4.6-2.6-9.6-5.7-15.1-9.3-5.5-3.6-11.2-5.4-17.1-5.4s-3.6,.5-4.9,1.5Z"/><path class="c" d="M568.8,148.4c4.2-3.9,8.2-8.1,12-12.7,3.7-4.6,7.6-9,11.5-13.4s8-8.6,12.2-12.7c4.2-4.1,8.9-7.6,14.2-10.5,7.5,17.6,14.1,35.4,19.8,53.5,5.7,18.1,11.8,36.2,18.3,54.4,.3,1,.6,2,1,3.2,.3,1.1,.5,2,.5,2.7,0,2.3-2.1,6.1-6.3,11.5-4.2,5.4-9.4,10.9-15.4,16.6-6,5.7-12.3,10.7-18.8,14.9-6.5,4.2-11.9,6.5-16.1,6.8-2.9-6.2-5.4-12.5-7.3-18.8-2-6.3-3.7-12.9-5.4-19.5-1.6-6.7-3.4-13.3-5.4-19.8-2-6.5-4.4-12.9-7.3-19l-4.4-.5c-2,6.8-3.2,16.7-3.7,29.5-.5,12.9-.7,26.5-.5,40.8,.2,14.3,.4,28.3,.7,42,.3,13.7,.5,24.7,.5,33.2,13.3,4.2,26.8,7.7,40.3,10.5,13.5,2.8,26.9,6.4,40.3,11-3.6,11.4-9,21.9-16.4,31.5-7.3,9.6-14.9,18.6-22.7,27.1-19.2-5.5-38.7-10.3-58.6-14.4-19.9-4.1-38.6-10.5-56.2-19.3,0-11.4-.2-22.8-.5-34.2-.3-11.4-.5-22.8-.5-34.2,0-22.8,.2-45.6,.5-68.4,.3-22.8,.5-45.6,.5-68.4-1-.3-2.6-.9-4.9-1.7-2.3-.8-4.6-1.7-6.8-2.7-2.3-1-4.2-2-5.9-2.9-1.6-1-2.4-1.8-2.4-2.4,0-5.5,1.1-10.7,3.2-15.4,2.1-4.7,4.7-9.3,7.8-13.7,3.1-4.4,6.4-8.6,10-12.7,3.6-4.1,6.8-8.4,9.8-12.9,10.1,2.3,19.9,4.9,29.5,7.8,9.6,2.9,19.1,6.3,28.6,10.3,1,3.6,1.8,7.4,2.4,11.5,.6,4.1,1.3,7.9,2,11.5Z"/><path class="c" d="M693.3,43.9c5.2-3.2,10.8-5.8,16.8-7.6,6-1.8,12.1-3,18.3-3.7,6.2-.6,12.5-1.1,18.8-1.2,6.3-.2,12.6-.4,18.8-.7,.3,5.9,.5,11.9,.5,18.1v60.8c0,4.4,.3,8.9,1,13.4,2.9-.3,5.9-.6,9-1,3.1-.3,6.4-.6,10-1,1,2.6,1.8,5.2,2.4,7.8,.6,2.6,1,5.4,1,8.3s-.6,8-1.7,12.2c-1.1,4.2-2,8.6-2.7,13.2-3.3,.7-6.3,1.1-9.3,1.2-2.9,.2-6.2,.6-9.8,1.2,.6,29.6,1,59.2,1,88.6v88.6c0,3.6,1,5.9,2.9,6.8s4.2,2,6.6,2.9c2.4,1,4.7,2.4,6.8,4.4,2.1,2,3.2,5.7,3.2,11.2-5.5,7.2-10.4,14.7-14.6,22.7-4.2,8-9.8,14.9-16.6,20.8-10.4-1.3-20.2-3.9-29.3-7.8-9.1-3.9-18.7-7.2-28.8-9.8-.7-14-1.1-27.9-1.2-41.7-.2-13.8-.2-27.7-.2-41.7V166.9c-2.9-.3-5.9-.6-8.8-.7-2.9-.2-5.5-.6-7.6-1.2-2.1-.6-3.8-2-5.1-3.9-1.3-2-2-4.9-2-8.8s.3-9.4,1-14.4c.6-5,1.3-10,2-14.9,3.3,0,5.7,.2,7.3,.5,1.6,.3,3,.2,4.2-.5,1.1-.6,2.3-1.9,3.4-3.7,1.1-1.8,2.8-5,5.1-9.5-.3-10.4-.3-19.3,0-26.6,.3-7.3,.5-13.5,.5-18.6s-.2-9.1-.5-12.2c-.3-3.1-1.1-5.9-2.4-8.5Z"/><path class="c" d="M824.6,49.7c5.9-5.2,11.2-10.7,16.1-16.6,4.9-5.9,10.4-10.9,16.6-15.1,4.9,.3,10.9,.8,18.1,1.5,7.2,.7,13.9,1.5,20.3,2.7,6.3,1.1,11.8,2.7,16.4,4.6,4.6,2,6.8,4.4,6.8,7.3v5.9c0,7.5-.5,14.8-1.5,22-1,7.2-1.6,14.5-2,22-5.5,1-10.9,1.5-16.1,1.5s-10.4-.5-15.6-1.5c2,5.5,4,10.9,6.1,16.1,2.1,5.2,4,10.6,5.6,16.1,3.3,0,6.3,0,9.3-.2,2.9-.2,5.4,.2,7.6,1.2,2.1,1,3.7,2.7,4.9,5.1,1.1,2.4,1.7,6.3,1.7,11.5s-.3,8.3-1,12.2c-.7,3.9-1.5,8-2.4,12.2-3.6,.3-6.8,.5-9.8,.5s-5.9,.3-8.8,1c-.3,18.6-.5,36.9-.5,54.9v206.3c0,10.1,.2,20.8,.5,32.2,.3,11.4-1.3,21.5-4.9,30.3-11.1,1-22,2.4-32.7,4.4s-21.7,2.9-32.7,2.9c-.3-4.2-.7-8.5-1-12.7-.3-4.2-.5-8.6-.5-13.2s.2-11.2,.5-16.8c.3-5.7,.5-11.5,.5-17.3-.7-21.8-1-43.5-1-64.9V235.3c0-21.5,.3-43.3,1-65.4-.7-2.9-2-5-4.2-6.3-2.1-1.3-4.6-2.2-7.3-2.7-2.8-.5-5.5-.8-8.3-1-2.8-.2-5.3-.7-7.6-1.7,0-7.2,.4-14.1,1.2-20.8,.8-6.7,2.4-13.3,4.6-19.8,3.6,0,6.9,0,10-.2,3.1-.2,6.4-.2,10-.2,0-8.1-1-16.1-2.9-23.9-2-7.8-4.4-15.5-7.3-22.9-1-1.3-1.5-2.8-1.5-4.4,0-3.6,1.4-6.6,4.2-9,2.8-2.4,5.3-4.8,7.6-7.1Z"/><path class="c" d="M1003.4,114.7c3.6-1.6,7.2-3.2,10.7-4.6,3.6-1.5,7.3-2.2,11.2-2.2s2.6,.2,3.9,.5c1.3,.3,2.8,.7,4.4,1,14,4.9,27.7,10,41.3,15.4,13.5,5.4,27.1,11,40.8,16.8v147.7c0,26.5-.3,53.3-1,80.3-13.4,6.8-26.7,13.7-40,20.5-13.4,6.8-27.3,13.2-42,19-2.6,1.3-5.2,2-7.8,2-3.9,0-9.6-1.3-17.1-3.9-7.5-2.6-15.5-5.6-23.9-9-8.5-3.4-17.2-7-26.1-10.7-9-3.7-16.8-6.8-23.7-9-.7-14.6-1-28.9-1-42.7V148.4c11.4-6.5,23-12.3,34.9-17.3,11.9-5,23.7-10.5,35.4-16.4Zm3.9,57.1c-.7,14-1,27.8-1,41.3v123.3c6.5,2.6,12.8,5.1,18.8,7.3,6,2.3,12.3,4.2,18.8,5.9v-84.7c0-25.9,.2-52.5,.5-79.8-4.6-2.6-9.6-5.7-15.1-9.3-5.5-3.6-11.2-5.4-17.1-5.4s-3.6,.5-4.9,1.5Z"/><path class="c" d="M1176.2,26.3c3.2,0,7.2-.6,11.7-1.7,4.6-1.1,9-1.7,13.2-1.7s6,.8,8.3,2.4c2.3,1.6,3.4,4.7,3.4,9.3,0,17.3-.2,34.5-.5,51.8-.3,17.3-.5,34.7-.5,52.2,0,34.8,.2,69.4,.5,103.8,.3,34.3,.5,69.1,.5,104.3,3.6,1,7.1,2,10.5,3.2,3.4,1.1,6.9,2.5,10.5,4.2-.3,5.5-1.5,10.7-3.7,15.6-2.1,4.9-4.7,9.6-7.8,14.2-3.1,4.6-6.3,9-9.8,13.4-3.4,4.4-6.6,8.7-9.5,12.9-10.4-2.9-20.7-5.8-30.8-8.5-10.1-2.8-20-5.9-29.8-9.5-.7-6.5-1.2-12.8-1.7-18.8-.5-6-.7-12.3-.7-18.8s.2-15,.5-22.5c.3-7.5,.5-15.1,.5-23v-50.3c0-71.3,.5-142.9,1.5-214.8,0-.6-.2-1.2-.5-1.7-.3-.5-.5-1.1-.5-1.7,0-3.6,1.3-6.2,3.9-7.8,2.6-1.6,5.7-2.8,9.3-3.7,3.6-.8,7.3-1.3,11.2-1.5,3.9-.2,7.3-.6,10.3-1.2Z"/><path class="c" d="M1268.5,112.7c10.7,0,21.1,2.2,31,6.6,9.9,4.4,20.1,8.4,30.5,12,1.6,5.5,2.4,10.6,2.4,15.1v50.8c0,23.4,0,47,.2,70.6,.2,23.6,.2,47.1,.2,70.6v2.4c0,2.9,1.1,5.2,3.2,6.8,2.1,1.6,4.5,3,7.1,4.2,2.6,1.1,5,2.2,7.1,3.2,2.1,1,3.2,2.3,3.2,3.9,0,3.3-1.2,7.2-3.7,12-2.4,4.7-5.4,9.6-8.8,14.6-3.4,5.1-7.1,9.8-11,14.4-3.9,4.6-7.3,8.3-10.3,11.2-4.9-.3-9.7-1.2-14.4-2.7-4.7-1.5-9.4-3-13.9-4.6-4.6-1.6-9.1-3.2-13.7-4.9-4.6-1.6-9.3-2.8-14.2-3.4-2.6-6.8-3.9-13.3-3.9-19.5v-100.6c0-11.7,.4-23.4,1.2-35.2,.8-11.7,1.2-23.4,1.2-35.2s-.5-9.3-1.5-14.2-2-9.6-2.9-14.2c-4.2-1.6-7.9-4-11-7.1-3.1-3.1-4.6-6.6-4.6-10.5s1-6.4,2.9-10.5c2-4.1,4.4-8.2,7.3-12.5,2.9-4.2,5.9-8.4,8.8-12.5,2.9-4.1,5.4-7.7,7.3-11Zm5.4-85c11.4,1.6,22.5,4.5,33.2,8.5,10.7,4.1,21.3,7.9,31.7,11.5-.7,9.4-2.6,18.7-5.9,27.8-3.3,9.1-6.8,18.1-10.7,26.9-11.1-.3-22-2.6-32.7-6.8-10.7-4.2-21.3-7.8-31.7-10.7,1-6.2,1.9-11.5,2.7-15.9,.8-4.4,1.8-8.5,2.9-12.5,1.1-3.9,2.5-8.1,4.2-12.5,1.6-4.4,3.7-9.8,6.3-16.4Z"/><path class="c" d="M1437,114.7c3.6-1.6,7.2-3.2,10.7-4.6,3.6-1.5,7.3-2.2,11.2-2.2s2.6,.2,3.9,.5c1.3,.3,2.8,.7,4.4,1,14,4.9,27.7,10,41.3,15.4,13.5,5.4,27.1,11,40.8,16.8v147.7c0,26.5-.3,53.3-1,80.3-13.4,6.8-26.7,13.7-40,20.5-13.4,6.8-27.3,13.2-42,19-2.6,1.3-5.2,2-7.8,2-3.9,0-9.6-1.3-17.1-3.9-7.5-2.6-15.5-5.6-23.9-9-8.5-3.4-17.2-7-26.1-10.7-9-3.7-16.8-6.8-23.7-9-.7-14.6-1-28.9-1-42.7V148.4c11.4-6.5,23-12.3,34.9-17.3,11.9-5,23.7-10.5,35.4-16.4Zm3.9,57.1c-.7,14-1,27.8-1,41.3v123.3c6.5,2.6,12.8,5.1,18.8,7.3,6,2.3,12.3,4.2,18.8,5.9v-84.7c0-25.9,.2-52.5,.5-79.8-4.6-2.6-9.6-5.7-15.1-9.3-5.5-3.6-11.2-5.4-17.1-5.4s-3.6,.5-4.9,1.5Z"/></g><g><path class="b" d="M58.5,12.2c1.6-3.6,4.2-5.4,7.6-5.4s6.6,.8,9.5,2.4c10.4,4.6,20.4,9.6,30,15.1,9.6,5.5,19.6,10.7,30,15.6,8.8-5.5,17.2-11.4,25.1-17.6,8-6.2,16.4-11.9,25.1-17.1,15.3,3.6,29.9,9.2,43.7,16.8,13.8,7.7,27.9,14.6,42.2,20.8-.3,10.4-.4,23.3-.2,38.6,.2,15.3,.3,31.9,.5,49.8,.2,17.9,.4,36.5,.7,55.7,.3,19.2,.5,37.9,.5,56.2s0,35.4-.2,51.5c-.2,16.1-.6,29.9-1.2,41.3-15.6,8.8-30.6,18.4-44.9,28.8-14.3,10.4-29.6,19.4-45.9,26.9-8.8-3.6-17.1-7.9-24.9-12.9-7.8-5-16-9.4-24.4-12.9-1.6,16.6-2,33-1,49.3,1,16.3,.2,32.5-2.4,48.8-11.4,2.9-23,5.5-34.7,7.8-11.7,2.3-23.4,2.9-35.2,2,0-24.1,0-47.9,.2-71.5,.2-23.6-.6-47.4-2.2-71.5-5.2-2.6-10.5-5-15.9-7.3-5.4-2.3-10.7-4.9-15.9-7.8,3.6-7.8,8.6-14.7,15.1-20.8,6.5-6,12.5-12.3,18.1-18.8,0-32.5-.2-64.8-.5-96.7-.3-31.9-.2-64.1,.5-96.7-4.6-4.6-9.8-8-15.6-10.3-5.9-2.3-10.4-6-13.7-11.2,2.9-9.1,7.5-17.4,13.7-24.9,6.2-7.5,11.6-15.5,16.1-23.9Zm71.8,86.4c0,29.6,.2,59,.5,88.1,.3,29.1,.2,58.5-.5,88.1,.6,2.9,.8,6.3,.5,10.3-.3,3.9,1.3,6.3,4.9,7.3,11.4,5.5,22.4,11.5,33,17.8,10.6,6.3,21.7,12,33.4,16.8-1.3-2.3-2.1-9.8-2.4-22.5-.3-12.7-.4-27.8-.2-45.4,.2-17.6,.4-36.4,.7-56.4,.3-20,.6-38.7,1-55.9,.3-17.2,.4-31.8,.2-43.7-.2-11.9-.6-18.6-1.2-20.3-6.5-2.6-12.8-5.4-18.8-8.3-6-2.9-12.3-5.5-18.8-7.8-3.6,1-7.3,2.4-11.2,4.2-3.9,1.8-7.4,4-10.5,6.6-3.1,2.6-5.6,5.7-7.6,9.3-2,3.6-2.9,7.5-2.9,11.7Z"/><path class="b" d="M368,96.7c3.6-1.6,7.2-3.2,10.7-4.6,3.6-1.5,7.3-2.2,11.2-2.2s2.6,.2,3.9,.5c1.3,.3,2.8,.7,4.4,1,14,4.9,27.7,10,41.3,15.4,13.5,5.4,27.1,11,40.8,16.8v147.7c0,26.5-.3,53.3-1,80.3-13.4,6.8-26.7,13.7-40,20.5-13.4,6.8-27.3,13.2-42,19-2.6,1.3-5.2,2-7.8,2-3.9,0-9.6-1.3-17.1-3.9-7.5-2.6-15.5-5.6-23.9-9-8.5-3.4-17.2-7-26.1-10.7-9-3.7-16.8-6.8-23.7-9-.7-14.6-1-28.9-1-42.7V130.4c11.4-6.5,23-12.3,34.9-17.3,11.9-5,23.7-10.5,35.4-16.4Zm3.9,57.1c-.7,14-1,27.8-1,41.3v123.3c6.5,2.6,12.8,5.1,18.8,7.3,6,2.3,12.3,4.2,18.8,5.9v-84.7c0-25.9,.2-52.5,.5-79.8-4.6-2.6-9.6-5.7-15.1-9.3-5.5-3.6-11.2-5.4-17.1-5.4s-3.6,.5-4.9,1.5Z"/><path class="b" d="M586.8,130.4c4.2-3.9,8.2-8.1,12-12.7,3.7-4.6,7.6-9,11.5-13.4s8-8.6,12.2-12.7c4.2-4.1,8.9-7.6,14.2-10.5,7.5,17.6,14.1,35.4,19.8,53.5,5.7,18.1,11.8,36.2,18.3,54.4,.3,1,.6,2,1,3.2,.3,1.1,.5,2,.5,2.7,0,2.3-2.1,6.1-6.3,11.5-4.2,5.4-9.4,10.9-15.4,16.6-6,5.7-12.3,10.7-18.8,14.9-6.5,4.2-11.9,6.5-16.1,6.8-2.9-6.2-5.4-12.5-7.3-18.8-2-6.3-3.7-12.9-5.4-19.5-1.6-6.7-3.4-13.3-5.4-19.8-2-6.5-4.4-12.9-7.3-19l-4.4-.5c-2,6.8-3.2,16.7-3.7,29.5-.5,12.9-.7,26.5-.5,40.8,.2,14.3,.4,28.3,.7,42,.3,13.7,.5,24.7,.5,33.2,13.3,4.2,26.8,7.7,40.3,10.5,13.5,2.8,26.9,6.4,40.3,11-3.6,11.4-9,21.9-16.4,31.5-7.3,9.6-14.9,18.6-22.7,27.1-19.2-5.5-38.7-10.3-58.6-14.4-19.9-4.1-38.6-10.5-56.2-19.3,0-11.4-.2-22.8-.5-34.2-.3-11.4-.5-22.8-.5-34.2,0-22.8,.2-45.6,.5-68.4,.3-22.8,.5-45.6,.5-68.4-1-.3-2.6-.9-4.9-1.7-2.3-.8-4.6-1.7-6.8-2.7-2.3-1-4.2-2-5.9-2.9-1.6-1-2.4-1.8-2.4-2.4,0-5.5,1.1-10.7,3.2-15.4,2.1-4.7,4.7-9.3,7.8-13.7,3.1-4.4,6.4-8.6,10-12.7,3.6-4.1,6.8-8.4,9.8-12.9,10.1,2.3,19.9,4.9,29.5,7.8,9.6,2.9,19.1,6.3,28.6,10.3,1,3.6,1.8,7.4,2.4,11.5,.6,4.1,1.3,7.9,2,11.5Z"/><path class="b" d="M711.3,25.9c5.2-3.2,10.8-5.8,16.8-7.6,6-1.8,12.1-3,18.3-3.7,6.2-.6,12.5-1.1,18.8-1.2,6.3-.2,12.6-.4,18.8-.7,.3,5.9,.5,11.9,.5,18.1v60.8c0,4.4,.3,8.9,1,13.4,2.9-.3,5.9-.6,9-1,3.1-.3,6.4-.6,10-1,1,2.6,1.8,5.2,2.4,7.8,.6,2.6,1,5.4,1,8.3s-.6,8-1.7,12.2c-1.1,4.2-2,8.6-2.7,13.2-3.3,.7-6.3,1.1-9.3,1.2-2.9,.2-6.2,.6-9.8,1.2,.6,29.6,1,59.2,1,88.6v88.6c0,3.6,1,5.9,2.9,6.8s4.2,2,6.6,2.9c2.4,1,4.7,2.4,6.8,4.4,2.1,2,3.2,5.7,3.2,11.2-5.5,7.2-10.4,14.7-14.6,22.7-4.2,8-9.8,14.9-16.6,20.8-10.4-1.3-20.2-3.9-29.3-7.8-9.1-3.9-18.7-7.2-28.8-9.8-.7-14-1.1-27.9-1.2-41.7-.2-13.8-.2-27.7-.2-41.7V148.9c-2.9-.3-5.9-.6-8.8-.7-2.9-.2-5.5-.6-7.6-1.2-2.1-.6-3.8-2-5.1-3.9-1.3-2-2-4.9-2-8.8s.3-9.4,1-14.4c.6-5,1.3-10,2-14.9,3.3,0,5.7,.2,7.3,.5,1.6,.3,3,.2,4.2-.5,1.1-.6,2.3-1.9,3.4-3.7,1.1-1.8,2.8-5,5.1-9.5-.3-10.4-.3-19.3,0-26.6,.3-7.3,.5-13.5,.5-18.6s-.2-9.1-.5-12.2c-.3-3.1-1.1-5.9-2.4-8.5Z"/><path class="b" d="M842.6,31.7c5.9-5.2,11.2-10.7,16.1-16.6s10.4-10.9,16.6-15.1c4.9,.3,10.9,.8,18.1,1.5,7.2,.7,13.9,1.5,20.3,2.7,6.3,1.1,11.8,2.7,16.4,4.6,4.6,2,6.8,4.4,6.8,7.3v5.9c0,7.5-.5,14.8-1.5,22-1,7.2-1.6,14.5-2,22-5.5,1-10.9,1.5-16.1,1.5s-10.4-.5-15.6-1.5c2,5.5,4,10.9,6.1,16.1,2.1,5.2,4,10.6,5.6,16.1,3.2,0,6.3,0,9.3-.2,2.9-.2,5.4,.2,7.6,1.2,2.1,1,3.7,2.7,4.9,5.1,1.1,2.4,1.7,6.3,1.7,11.5s-.3,8.3-1,12.2c-.7,3.9-1.5,8-2.4,12.2-3.6,.3-6.8,.5-9.8,.5s-5.9,.3-8.8,1c-.3,18.6-.5,36.9-.5,54.9v206.3c0,10.1,.2,20.8,.5,32.2,.3,11.4-1.3,21.5-4.9,30.3-11.1,1-22,2.4-32.7,4.4-10.7,2-21.7,2.9-32.7,2.9-.3-4.2-.7-8.5-1-12.7-.3-4.2-.5-8.6-.5-13.2s.2-11.2,.5-16.8c.3-5.7,.5-11.5,.5-17.3-.7-21.8-1-43.5-1-64.9V217.3c0-21.5,.3-43.3,1-65.4-.7-2.9-2-5-4.2-6.3-2.1-1.3-4.6-2.2-7.3-2.7-2.8-.5-5.5-.8-8.3-1-2.8-.2-5.3-.7-7.6-1.7,0-7.2,.4-14.1,1.2-20.8,.8-6.7,2.4-13.3,4.6-19.8,3.6,0,6.9,0,10-.2,3.1-.2,6.4-.2,10-.2,0-8.1-1-16.1-2.9-23.9-2-7.8-4.4-15.5-7.3-22.9-1-1.3-1.5-2.8-1.5-4.4,0-3.6,1.4-6.6,4.2-9,2.8-2.4,5.3-4.8,7.6-7.1Z"/><path class="b" d="M1021.4,96.7c3.6-1.6,7.2-3.2,10.7-4.6,3.6-1.5,7.3-2.2,11.2-2.2s2.6,.2,3.9,.5c1.3,.3,2.8,.7,4.4,1,14,4.9,27.7,10,41.3,15.4,13.5,5.4,27.1,11,40.8,16.8v147.7c0,26.5-.3,53.3-1,80.3-13.4,6.8-26.7,13.7-40,20.5-13.4,6.8-27.3,13.2-42,19-2.6,1.3-5.2,2-7.8,2-3.9,0-9.6-1.3-17.1-3.9-7.5-2.6-15.5-5.6-23.9-9-8.5-3.4-17.2-7-26.1-10.7-9-3.7-16.8-6.8-23.7-9-.7-14.6-1-28.9-1-42.7V130.4c11.4-6.5,23-12.3,34.9-17.3,11.9-5,23.7-10.5,35.4-16.4Zm3.9,57.1c-.7,14-1,27.8-1,41.3v123.3c6.5,2.6,12.8,5.1,18.8,7.3,6,2.3,12.3,4.2,18.8,5.9v-84.7c0-25.9,.2-52.5,.5-79.8-4.6-2.6-9.6-5.7-15.1-9.3-5.5-3.6-11.2-5.4-17.1-5.4s-3.6,.5-4.9,1.5Z"/><path class="b" d="M1194.2,8.3c3.2,0,7.2-.6,11.7-1.7,4.6-1.1,8.9-1.7,13.2-1.7s6,.8,8.3,2.4c2.3,1.6,3.4,4.7,3.4,9.3,0,17.3-.2,34.5-.5,51.8-.3,17.3-.5,34.7-.5,52.2,0,34.8,.2,69.4,.5,103.8,.3,34.3,.5,69.1,.5,104.3,3.6,1,7.1,2,10.5,3.2,3.4,1.1,6.9,2.5,10.5,4.2-.3,5.5-1.5,10.7-3.7,15.6-2.1,4.9-4.7,9.6-7.8,14.2-3.1,4.6-6.3,9-9.8,13.4-3.4,4.4-6.6,8.7-9.5,12.9-10.4-2.9-20.7-5.8-30.8-8.5-10.1-2.8-20-5.9-29.8-9.5-.7-6.5-1.2-12.8-1.7-18.8-.5-6-.7-12.3-.7-18.8s.2-15,.5-22.5c.3-7.5,.5-15.1,.5-23v-50.3c0-71.3,.5-142.9,1.5-214.8,0-.6-.2-1.2-.5-1.7-.3-.5-.5-1.1-.5-1.7,0-3.6,1.3-6.2,3.9-7.8,2.6-1.6,5.7-2.8,9.3-3.7,3.6-.8,7.3-1.3,11.2-1.5,3.9-.2,7.3-.6,10.3-1.2Z"/><path class="b" d="M1286.5,94.7c10.7,0,21.1,2.2,31,6.6,9.9,4.4,20.1,8.4,30.5,12,1.6,5.5,2.4,10.6,2.4,15.1v50.8c0,23.4,0,47,.2,70.6,.2,23.6,.2,47.1,.2,70.6v2.4c0,2.9,1.1,5.2,3.2,6.8,2.1,1.6,4.5,3,7.1,4.2,2.6,1.1,5,2.2,7.1,3.2,2.1,1,3.2,2.3,3.2,3.9,0,3.3-1.2,7.2-3.7,12-2.4,4.7-5.4,9.6-8.8,14.6-3.4,5.1-7.1,9.8-11,14.4-3.9,4.6-7.3,8.3-10.3,11.2-4.9-.3-9.7-1.2-14.4-2.7-4.7-1.5-9.4-3-13.9-4.6-4.6-1.6-9.1-3.3-13.7-4.9-4.6-1.6-9.3-2.8-14.2-3.4-2.6-6.8-3.9-13.3-3.9-19.5v-100.6c0-11.7,.4-23.4,1.2-35.2,.8-11.7,1.2-23.4,1.2-35.2s-.5-9.3-1.5-14.2-2-9.6-2.9-14.2c-4.2-1.6-7.9-4-11-7.1-3.1-3.1-4.6-6.6-4.6-10.5s1-6.4,2.9-10.5c2-4.1,4.4-8.2,7.3-12.5,2.9-4.2,5.9-8.4,8.8-12.5,2.9-4.1,5.4-7.7,7.3-11Zm5.4-85c11.4,1.6,22.5,4.5,33.2,8.5,10.7,4.1,21.3,7.9,31.7,11.5-.7,9.4-2.6,18.7-5.9,27.8-3.3,9.1-6.8,18.1-10.7,26.9-11.1-.3-22-2.6-32.7-6.8-10.7-4.2-21.3-7.8-31.7-10.7,1-6.2,1.9-11.5,2.7-15.9,.8-4.4,1.8-8.5,2.9-12.5,1.1-3.9,2.5-8.1,4.2-12.5,1.6-4.4,3.7-9.8,6.3-16.4Z"/><path class="b" d="M1455,96.7c3.6-1.6,7.2-3.2,10.7-4.6,3.6-1.5,7.3-2.2,11.2-2.2s2.6,.2,3.9,.5c1.3,.3,2.8,.7,4.4,1,14,4.9,27.7,10,41.3,15.4,13.5,5.4,27.1,11,40.8,16.8v147.7c0,26.5-.3,53.3-1,80.3-13.4,6.8-26.7,13.7-40,20.5-13.4,6.8-27.3,13.2-42,19-2.6,1.3-5.2,2-7.8,2-3.9,0-9.6-1.3-17.1-3.9-7.5-2.6-15.5-5.6-23.9-9-8.5-3.4-17.2-7-26.1-10.7-9-3.7-16.8-6.8-23.7-9-.7-14.6-1-28.9-1-42.7V130.4c11.4-6.5,23-12.3,34.9-17.3,11.9-5,23.7-10.5,35.4-16.4Zm3.9,57.1c-.7,14-1,27.8-1,41.3v123.3c6.5,2.6,12.8,5.1,18.8,7.3,6,2.3,12.3,4.2,18.8,5.9v-84.7c0-25.9,.2-52.5,.5-79.8-4.6-2.6-9.6-5.7-15.1-9.3-5.5-3.6-11.2-5.4-17.1-5.4s-3.6,.5-4.9,1.5Z"/></g></svg>