<?xml version="1.0" encoding="UTF-8"?><svg id="a" xmlns="http://www.w3.org/2000/svg" viewBox="0 0 706.5 1571.3"><defs><style>.b{fill:#735e4c;}.c{fill:#fff;}.d{fill:none;stroke:#402d1d;stroke-miterlimit:10;stroke-width:10.5px;}</style></defs><g><path class="d" d="M24.2,1530.8c-3.6-1.6-5.4-4.2-5.4-7.6s.8-6.6,2.4-9.5c4.6-10.4,9.6-20.4,15.1-30,5.5-9.6,10.7-19.6,15.6-30-5.5-8.8-11.4-17.2-17.6-25.1-6.2-8-11.9-16.4-17.1-25.1,3.6-15.3,9.2-29.9,16.8-43.7,7.7-13.8,14.6-27.9,20.8-42.2,10.4,.3,23.3,.4,38.6,.2,15.3-.2,31.9-.3,49.8-.5,17.9-.2,36.5-.4,55.7-.7,19.2-.3,37.9-.5,56.2-.5s35.4,0,51.5,.2c16.1,.2,29.9,.6,41.3,1.2,8.8,15.6,18.4,30.6,28.8,44.9,10.4,14.3,19.4,29.6,26.9,45.9-3.6,8.8-7.9,17.1-12.9,24.9-5,7.8-9.4,16-12.9,24.4,16.6,1.6,33,2,49.3,1,16.3-1,32.5-.2,48.8,2.4,2.9,11.4,5.5,23,7.8,34.7,2.3,11.7,2.9,23.4,2,35.2-24.1,0-47.9,0-71.5-.2-23.6-.2-47.4,.6-71.5,2.2-2.6,5.2-5,10.5-7.3,15.9-2.3,5.4-4.9,10.7-7.8,15.9-7.8-3.6-14.7-8.6-20.8-15.1-6-6.5-12.3-12.5-18.8-18.1-32.5,0-64.8,.2-96.7,.5-31.9,.3-64.1,.2-96.7-.5-4.6,4.6-8,9.8-10.3,15.6-2.3,5.9-6,10.4-11.2,13.7-9.1-2.9-17.4-7.5-24.9-13.7-7.5-6.2-15.5-11.6-23.9-16.1Zm86.4-71.8c29.6,0,59-.2,88.1-.5,29.1-.3,58.5-.2,88.1,.5,2.9-.6,6.3-.8,10.3-.5,3.9,.3,6.3-1.3,7.3-4.9,5.5-11.4,11.5-22.4,17.8-33,6.3-10.6,12-21.7,16.8-33.4-2.3,1.3-9.8,2.1-22.5,2.4-12.7,.3-27.8,.4-45.4,.2-17.6-.2-36.4-.4-56.4-.7-20-.3-38.7-.6-55.9-1-17.2-.3-31.8-.4-43.7-.2-11.9,.2-18.6,.6-20.3,1.2-2.6,6.5-5.4,12.8-8.3,18.8-2.9,6-5.5,12.3-7.8,18.8,1,3.6,2.4,7.3,4.2,11.2,1.8,3.9,4,7.4,6.6,10.5,2.6,3.1,5.7,5.6,9.3,7.6,3.6,2,7.5,2.9,11.7,2.9Z"/><path class="d" d="M108.7,1221.2c-1.6-3.6-3.2-7.2-4.6-10.7-1.5-3.6-2.2-7.3-2.2-11.2s.2-2.6,.5-3.9c.3-1.3,.7-2.8,1-4.4,4.9-14,10-27.7,15.4-41.3,5.4-13.5,11-27.1,16.8-40.8h147.7c26.5,0,53.3,.3,80.3,1,6.8,13.4,13.7,26.7,20.5,40,6.8,13.4,13.2,27.3,19,42,1.3,2.6,2,5.2,2,7.8,0,3.9-1.3,9.6-3.9,17.1-2.6,7.5-5.6,15.5-9,23.9-3.4,8.5-7,17.2-10.7,26.1-3.7,9-6.8,16.8-9,23.7-14.6,.7-28.9,1-42.7,1H142.4c-6.5-11.4-12.3-23-17.3-34.9-5-11.9-10.5-23.7-16.4-35.4Zm57.1-3.9c14,.7,27.8,1,41.3,1h123.3c2.6-6.5,5.1-12.8,7.3-18.8,2.3-6,4.2-12.3,5.9-18.8h-84.7c-25.9,0-52.5-.2-79.8-.5-2.6,4.6-5.7,9.6-9.3,15.1-3.6,5.5-5.4,11.2-5.4,17.1s.5,3.6,1.5,4.9Z"/><path class="d" d="M142.4,1002.5c-3.9-4.2-8.1-8.2-12.7-12-4.6-3.7-9-7.6-13.4-11.5s-8.6-8-12.7-12.2c-4.1-4.2-7.6-8.9-10.5-14.2,17.6-7.5,35.4-14.1,53.5-19.8,18.1-5.7,36.2-11.8,54.4-18.3,1-.3,2-.6,3.2-1,1.1-.3,2-.5,2.7-.5,2.3,0,6.1,2.1,11.5,6.3,5.4,4.2,10.9,9.4,16.6,15.4,5.7,6,10.7,12.3,14.9,18.8,4.2,6.5,6.5,11.9,6.8,16.1-6.2,2.9-12.5,5.4-18.8,7.3-6.3,2-12.9,3.7-19.5,5.4-6.7,1.6-13.3,3.4-19.8,5.4-6.5,2-12.9,4.4-19,7.3l-.5,4.4c6.8,2,16.7,3.2,29.5,3.7,12.9,.5,26.5,.7,40.8,.5,14.3-.2,28.3-.4,42-.7,13.7-.3,24.7-.5,33.2-.5,4.2-13.3,7.7-26.8,10.5-40.3,2.8-13.5,6.4-26.9,11-40.3,11.4,3.6,21.9,9,31.5,16.4,9.6,7.3,18.6,14.9,27.1,22.7-5.5,19.2-10.3,38.7-14.4,58.6-4.1,19.9-10.5,38.6-19.3,56.2-11.4,0-22.8,.2-34.2,.5-11.4,.3-22.8,.5-34.2,.5-22.8,0-45.6-.2-68.4-.5-22.8-.3-45.6-.5-68.4-.5-.3,1-.9,2.6-1.7,4.9-.8,2.3-1.7,4.6-2.7,6.8-1,2.3-2,4.2-2.9,5.9-1,1.6-1.8,2.4-2.4,2.4-5.5,0-10.7-1.1-15.4-3.2-4.7-2.1-9.3-4.7-13.7-7.8-4.4-3.1-8.6-6.4-12.7-10-4.1-3.6-8.4-6.8-12.9-9.8,2.3-10.1,4.9-19.9,7.8-29.5,2.9-9.6,6.3-19.1,10.3-28.6,3.6-1,7.4-1.8,11.5-2.4,4.1-.6,7.9-1.3,11.5-2Z"/><path class="d" d="M37.9,878c-3.2-5.2-5.8-10.8-7.6-16.8-1.8-6-3-12.1-3.7-18.3-.6-6.2-1.1-12.5-1.2-18.8-.2-6.3-.4-12.6-.7-18.8,5.9-.3,11.9-.5,18.1-.5h60.8c4.4,0,8.9-.3,13.4-1-.3-2.9-.6-5.9-1-9-.3-3.1-.6-6.4-1-10,2.6-1,5.2-1.8,7.8-2.4,2.6-.6,5.4-1,8.3-1s8,.6,12.2,1.7c4.2,1.1,8.6,2,13.2,2.7,.7,3.3,1.1,6.3,1.2,9.3,.2,2.9,.6,6.2,1.2,9.8,29.6-.6,59.2-1,88.6-1h88.6c3.6,0,5.9-1,6.8-2.9s2-4.2,2.9-6.6,2.4-4.7,4.4-6.8c2-2.1,5.7-3.2,11.2-3.2,7.2,5.5,14.7,10.4,22.7,14.6,8,4.2,14.9,9.8,20.8,16.6-1.3,10.4-3.9,20.2-7.8,29.3-3.9,9.1-7.2,18.7-9.8,28.8-14,.7-27.9,1.1-41.7,1.2-13.8,.2-27.7,.2-41.7,.2H160.9c-.3,2.9-.6,5.9-.7,8.8-.2,2.9-.6,5.5-1.2,7.6-.6,2.1-2,3.8-3.9,5.1-2,1.3-4.9,2-8.8,2s-9.4-.3-14.4-1c-5-.6-10-1.3-14.9-2,0-3.3,.2-5.7,.5-7.3,.3-1.6,.2-3-.5-4.2-.6-1.1-1.9-2.3-3.7-3.4-1.8-1.1-5-2.8-9.5-5.1-10.4,.3-19.3,.3-26.6,0-7.3-.3-13.5-.5-18.6-.5s-9.1,.2-12.2,.5c-3.1,.3-5.9,1.1-8.5,2.4Z"/><path class="d" d="M43.7,746.6c-5.2-5.9-10.7-11.2-16.6-16.1s-10.9-10.4-15.1-16.6c.3-4.9,.8-10.9,1.5-18.1,.7-7.2,1.5-13.9,2.7-20.3,1.1-6.3,2.7-11.8,4.6-16.4,2-4.6,4.4-6.8,7.3-6.8h5.9c7.5,0,14.8,.5,22,1.5,7.2,1,14.5,1.6,22,2,1,5.5,1.5,10.9,1.5,16.1s-.5,10.4-1.5,15.6c5.5-2,10.9-4,16.1-6.1,5.2-2.1,10.6-4,16.1-5.6,0-3.3,0-6.3-.2-9.3-.2-2.9,.2-5.4,1.2-7.6,1-2.1,2.7-3.7,5.1-4.9,2.4-1.1,6.3-1.7,11.5-1.7s8.3,.3,12.2,1c3.9,.7,8,1.5,12.2,2.4,.3,3.6,.5,6.8,.5,9.8s.3,5.9,1,8.8c18.6,.3,36.9,.5,54.9,.5h206.3c10.1,0,20.8-.2,32.2-.5,11.4-.3,21.5,1.3,30.3,4.9,1,11.1,2.4,22,4.4,32.7,2,10.7,2.9,21.7,2.9,32.7-4.2,.3-8.5,.7-12.7,1-4.2,.3-8.6,.5-13.2,.5s-11.2-.2-16.8-.5c-5.7-.3-11.5-.5-17.3-.5-21.8,.7-43.5,1-64.9,1H229.3c-21.5,0-43.3-.3-65.4-1-2.9,.7-5,2-6.3,4.2-1.3,2.1-2.2,4.6-2.7,7.3-.5,2.8-.8,5.5-1,8.3-.2,2.8-.7,5.3-1.7,7.6-7.2,0-14.1-.4-20.8-1.2-6.7-.8-13.3-2.4-19.8-4.6,0-3.6,0-6.9-.2-10-.2-3.1-.2-6.4-.2-10-8.1,0-16.1,1-23.9,2.9-7.8,2-15.5,4.4-22.9,7.3-1.3,1-2.8,1.5-4.4,1.5-3.6,0-6.6-1.4-9-4.2-2.4-2.8-4.8-5.3-7.1-7.6Z"/><path class="d" d="M108.7,567.9c-1.6-3.6-3.2-7.2-4.6-10.7-1.5-3.6-2.2-7.3-2.2-11.2s.2-2.6,.5-3.9c.3-1.3,.7-2.8,1-4.4,4.9-14,10-27.7,15.4-41.3,5.4-13.5,11-27.1,16.8-40.8h147.7c26.5,0,53.3,.3,80.3,1,6.8,13.4,13.7,26.7,20.5,40,6.8,13.4,13.2,27.3,19,42,1.3,2.6,2,5.2,2,7.8,0,3.9-1.3,9.6-3.9,17.1-2.6,7.5-5.6,15.5-9,23.9-3.4,8.5-7,17.2-10.7,26.1-3.7,9-6.8,16.8-9,23.7-14.6,.7-28.9,1-42.7,1H142.4c-6.5-11.4-12.3-23-17.3-34.9-5-11.9-10.5-23.7-16.4-35.4Zm57.1-3.9c14,.7,27.8,1,41.3,1h123.3c2.6-6.5,5.1-12.8,7.3-18.8,2.3-6,4.2-12.3,5.9-18.8h-84.7c-25.9,0-52.5-.2-79.8-.5-2.6,4.6-5.7,9.6-9.3,15.1-3.6,5.5-5.4,11.2-5.4,17.1s.5,3.6,1.5,4.9Z"/><path class="d" d="M20.3,395.1c0-3.2-.6-7.2-1.7-11.7-1.1-4.6-1.7-8.9-1.7-13.2s.8-6,2.4-8.3c1.6-2.3,4.7-3.4,9.3-3.4,17.3,0,34.5,.2,51.8,.5,17.3,.3,34.7,.5,52.2,.5,34.8,0,69.4-.2,103.8-.5,34.3-.3,69.1-.5,104.3-.5,1-3.6,2-7.1,3.2-10.5,1.1-3.4,2.5-6.9,4.2-10.5,5.5,.3,10.7,1.5,15.6,3.7,4.9,2.1,9.6,4.7,14.2,7.8,4.6,3.1,9,6.3,13.4,9.8,4.4,3.4,8.7,6.6,12.9,9.5-2.9,10.4-5.8,20.7-8.5,30.8-2.8,10.1-5.9,20-9.5,29.8-6.5,.7-12.8,1.2-18.8,1.7-6,.5-12.3,.7-18.8,.7s-15-.2-22.5-.5c-7.5-.3-15.1-.5-23-.5h-50.3c-71.3,0-142.9-.5-214.8-1.5-.6,0-1.2,.2-1.7,.5-.5,.3-1.1,.5-1.7,.5-3.6,0-6.2-1.3-7.8-3.9-1.6-2.6-2.8-5.7-3.7-9.3-.8-3.6-1.3-7.3-1.5-11.2-.2-3.9-.6-7.3-1.2-10.3Z"/><path class="d" d="M21.8,297.4c1.6-11.4,4.5-22.5,8.5-33.2,4.1-10.7,7.9-21.3,11.5-31.7,9.4,.7,18.7,2.6,27.8,5.9,9.1,3.3,18.1,6.8,26.9,10.7-.3,11.1-2.6,22-6.8,32.7-4.2,10.7-7.8,21.3-10.7,31.7-6.2-1-11.5-1.9-15.9-2.7-4.4-.8-8.5-1.8-12.5-2.9-3.9-1.1-8.1-2.5-12.5-4.2-4.4-1.6-9.8-3.7-16.4-6.3Zm85,5.4c0-10.7,2.2-21.1,6.6-31,4.4-9.9,8.4-20.1,12-30.5,5.5-1.6,10.6-2.4,15.1-2.4h50.8c23.4,0,47,0,70.6-.2,23.6-.2,47.1-.2,70.6-.2h2.4c2.9,0,5.2-1.1,6.8-3.2,1.6-2.1,3-4.5,4.2-7.1,1.1-2.6,2.2-5,3.2-7.1,1-2.1,2.3-3.2,3.9-3.2,3.3,0,7.2,1.2,12,3.7,4.7,2.4,9.6,5.4,14.6,8.8,5.1,3.4,9.8,7.1,14.4,11,4.6,3.9,8.3,7.3,11.2,10.3-.3,4.9-1.2,9.7-2.7,14.4-1.5,4.7-3,9.4-4.6,13.9-1.6,4.6-3.2,9.1-4.9,13.7-1.6,4.6-2.8,9.3-3.4,14.2-6.8,2.6-13.3,3.9-19.5,3.9h-100.6c-11.7,0-23.4-.4-35.2-1.2-11.7-.8-23.4-1.2-35.2-1.2s-9.3,.5-14.2,1.5-9.6,2-14.2,2.9c-1.6,4.2-4,7.9-7.1,11-3.1,3.1-6.6,4.6-10.5,4.6s-6.4-1-10.5-2.9c-4.1-2-8.2-4.4-12.5-7.3-4.2-2.9-8.4-5.9-12.5-8.8-4.1-2.9-7.7-5.4-11-7.3Z"/><path class="d" d="M108.7,134.3c-1.6-3.6-3.2-7.2-4.6-10.7-1.5-3.6-2.2-7.3-2.2-11.2s.2-2.6,.5-3.9c.3-1.3,.7-2.8,1-4.4,4.9-14,10-27.7,15.4-41.3,5.4-13.5,11-27.1,16.8-40.8h147.7c26.5,0,53.3,.3,80.3,1,6.8,13.4,13.7,26.7,20.5,40,6.8,13.4,13.2,27.3,19,42,1.3,2.6,2,5.2,2,7.8,0,3.9-1.3,9.6-3.9,17.1-2.6,7.5-5.6,15.5-9,23.9-3.4,8.5-7,17.2-10.7,26.1-3.7,9-6.8,16.8-9,23.7-14.6,.7-28.9,1-42.7,1H142.4c-6.5-11.4-12.3-23-17.3-34.9-5-11.9-10.5-23.7-16.4-35.4Zm57.1-3.9c14,.7,27.8,1,41.3,1h123.3c2.6-6.5,5.1-12.8,7.3-18.8,2.3-6,4.2-12.3,5.9-18.8h-84.7c-25.9,0-52.5-.2-79.8-.5-2.6,4.6-5.7,9.6-9.3,15.1-3.6,5.5-5.4,11.2-5.4,17.1s.5,3.6,1.5,4.9Z"/></g><g><path class="c" d="M12.2,1508.8c-3.6-1.6-5.4-4.2-5.4-7.6s.8-6.6,2.4-9.5c4.6-10.4,9.6-20.4,15.1-30,5.5-9.6,10.7-19.6,15.6-30-5.5-8.8-11.4-17.2-17.6-25.1-6.2-8-11.9-16.4-17.1-25.1,3.6-15.3,9.2-29.9,16.8-43.7,7.7-13.8,14.6-27.9,20.8-42.2,10.4,.3,23.3,.4,38.6,.2,15.3-.2,31.9-.3,49.8-.5,17.9-.2,36.5-.4,55.7-.7,19.2-.3,37.9-.5,56.2-.5s35.4,0,51.5,.2c16.1,.2,29.9,.6,41.3,1.2,8.8,15.6,18.4,30.6,28.8,44.9,10.4,14.3,19.4,29.6,26.9,45.9-3.6,8.8-7.9,17.1-12.9,24.9-5,7.8-9.4,16-12.9,24.4,16.6,1.6,33,2,49.3,1,16.3-1,32.5-.2,48.8,2.4,2.9,11.4,5.5,23,7.8,34.7,2.3,11.7,2.9,23.4,2,35.2-24.1,0-47.9,0-71.5-.2-23.6-.2-47.4,.6-71.5,2.2-2.6,5.2-5,10.5-7.3,15.9-2.3,5.4-4.9,10.7-7.8,15.9-7.8-3.6-14.7-8.6-20.8-15.1-6-6.5-12.3-12.5-18.8-18.1-32.5,0-64.8,.2-96.7,.5-31.9,.3-64.1,.2-96.7-.5-4.6,4.6-8,9.8-10.3,15.6-2.3,5.9-6,10.4-11.2,13.7-9.1-2.9-17.4-7.5-24.9-13.7-7.5-6.2-15.5-11.6-23.9-16.1Zm86.4-71.8c29.6,0,59-.2,88.1-.5,29.1-.3,58.5-.2,88.1,.5,2.9-.6,6.3-.8,10.3-.5,3.9,.3,6.3-1.3,7.3-4.9,5.5-11.4,11.5-22.4,17.8-33,6.3-10.6,12-21.7,16.8-33.4-2.3,1.3-9.8,2.1-22.5,2.4-12.7,.3-27.8,.4-45.4,.2-17.6-.2-36.4-.4-56.4-.7-20-.3-38.7-.6-55.9-1-17.2-.3-31.8-.4-43.7-.2-11.9,.2-18.6,.6-20.3,1.2-2.6,6.5-5.4,12.8-8.3,18.8-2.9,6-5.5,12.3-7.8,18.8,1,3.6,2.4,7.3,4.2,11.2,1.8,3.9,4,7.4,6.6,10.5,2.6,3.1,5.7,5.6,9.3,7.6,3.6,2,7.5,2.9,11.7,2.9Z"/><path class="c" d="M96.7,1199.2c-1.6-3.6-3.2-7.2-4.6-10.7-1.5-3.6-2.2-7.3-2.2-11.2s.2-2.6,.5-3.9c.3-1.3,.7-2.8,1-4.4,4.9-14,10-27.7,15.4-41.3,5.4-13.5,11-27.1,16.8-40.8h147.7c26.5,0,53.3,.3,80.3,1,6.8,13.4,13.7,26.7,20.5,40,6.8,13.4,13.2,27.3,19,42,1.3,2.6,2,5.2,2,7.8,0,3.9-1.3,9.6-3.9,17.1-2.6,7.5-5.6,15.5-9,23.9-3.4,8.5-7,17.2-10.7,26.1-3.7,9-6.8,16.8-9,23.7-14.6,.7-28.9,1-42.7,1H130.4c-6.5-11.4-12.3-23-17.3-34.9-5-11.9-10.5-23.7-16.4-35.4Zm57.1-3.9c14,.7,27.8,1,41.3,1h123.3c2.6-6.5,5.1-12.8,7.3-18.8,2.3-6,4.2-12.3,5.9-18.8h-84.7c-25.9,0-52.5-.2-79.8-.5-2.6,4.6-5.7,9.6-9.3,15.1-3.6,5.5-5.4,11.2-5.4,17.1s.5,3.6,1.5,4.9Z"/><path class="c" d="M130.4,980.5c-3.9-4.2-8.1-8.2-12.7-12-4.6-3.7-9-7.6-13.4-11.5s-8.6-8-12.7-12.2c-4.1-4.2-7.6-8.9-10.5-14.2,17.6-7.5,35.4-14.1,53.5-19.8,18.1-5.7,36.2-11.8,54.4-18.3,1-.3,2-.6,3.2-1,1.1-.3,2-.5,2.7-.5,2.3,0,6.1,2.1,11.5,6.3,5.4,4.2,10.9,9.4,16.6,15.4,5.7,6,10.7,12.3,14.9,18.8,4.2,6.5,6.5,11.9,6.8,16.1-6.2,2.9-12.5,5.4-18.8,7.3-6.3,2-12.9,3.7-19.5,5.4-6.7,1.6-13.3,3.4-19.8,5.4-6.5,2-12.9,4.4-19,7.3l-.5,4.4c6.8,2,16.7,3.2,29.5,3.7,12.9,.5,26.5,.7,40.8,.5,14.3-.2,28.3-.4,42-.7,13.7-.3,24.7-.5,33.2-.5,4.2-13.3,7.7-26.8,10.5-40.3,2.8-13.5,6.4-26.9,11-40.3,11.4,3.6,21.9,9,31.5,16.4,9.6,7.3,18.6,14.9,27.1,22.7-5.5,19.2-10.3,38.7-14.4,58.6-4.1,19.9-10.5,38.6-19.3,56.2-11.4,0-22.8,.2-34.2,.5-11.4,.3-22.8,.5-34.2,.5-22.8,0-45.6-.2-68.4-.5-22.8-.3-45.6-.5-68.4-.5-.3,1-.9,2.6-1.7,4.9-.8,2.3-1.7,4.6-2.7,6.8-1,2.3-2,4.2-2.9,5.9-1,1.6-1.8,2.4-2.4,2.4-5.5,0-10.7-1.1-15.4-3.2-4.7-2.1-9.3-4.7-13.7-7.8-4.4-3.1-8.6-6.4-12.7-10-4.1-3.6-8.4-6.8-12.9-9.8,2.3-10.1,4.9-19.9,7.8-29.5,2.9-9.6,6.3-19.1,10.3-28.6,3.6-1,7.4-1.8,11.5-2.4,4.1-.6,7.9-1.3,11.5-2Z"/><path class="c" d="M25.9,856c-3.2-5.2-5.8-10.8-7.6-16.8-1.8-6-3-12.1-3.7-18.3-.6-6.2-1.1-12.5-1.2-18.8-.2-6.3-.4-12.6-.7-18.8,5.9-.3,11.9-.5,18.1-.5h60.8c4.4,0,8.9-.3,13.4-1-.3-2.9-.6-5.9-1-9-.3-3.1-.6-6.4-1-10,2.6-1,5.2-1.8,7.8-2.4,2.6-.6,5.4-1,8.3-1s8,.6,12.2,1.7c4.2,1.1,8.6,2,13.2,2.7,.7,3.3,1.1,6.3,1.2,9.3,.2,2.9,.6,6.2,1.2,9.8,29.6-.6,59.2-1,88.6-1h88.6c3.6,0,5.9-1,6.8-2.9s2-4.2,2.9-6.6,2.4-4.7,4.4-6.8c2-2.1,5.7-3.2,11.2-3.2,7.2,5.5,14.7,10.4,22.7,14.6,8,4.2,14.9,9.8,20.8,16.6-1.3,10.4-3.9,20.2-7.8,29.3-3.9,9.1-7.2,18.7-9.8,28.8-14,.7-27.9,1.1-41.7,1.2-13.8,.2-27.7,.2-41.7,.2H148.9c-.3,2.9-.6,5.9-.7,8.8-.2,2.9-.6,5.5-1.2,7.6-.6,2.1-2,3.8-3.9,5.1-2,1.3-4.9,2-8.8,2s-9.4-.3-14.4-1c-5-.6-10-1.3-14.9-2,0-3.3,.2-5.7,.5-7.3,.3-1.6,.2-3-.5-4.2-.6-1.1-1.9-2.3-3.7-3.4-1.8-1.1-5-2.8-9.5-5.1-10.4,.3-19.3,.3-26.6,0-7.3-.3-13.5-.5-18.6-.5s-9.1,.2-12.2,.5c-3.1,.3-5.9,1.1-8.5,2.4Z"/><path class="c" d="M31.7,724.6c-5.2-5.9-10.7-11.2-16.6-16.1s-10.9-10.4-15.1-16.6c.3-4.9,.8-10.9,1.5-18.1,.7-7.2,1.5-13.9,2.7-20.3,1.1-6.3,2.7-11.8,4.6-16.4,2-4.6,4.4-6.8,7.3-6.8h5.9c7.5,0,14.8,.5,22,1.5,7.2,1,14.5,1.6,22,2,1,5.5,1.5,10.9,1.5,16.1s-.5,10.4-1.5,15.6c5.5-2,10.9-4,16.1-6.1,5.2-2.1,10.6-4,16.1-5.6,0-3.3,0-6.3-.2-9.3-.2-2.9,.2-5.4,1.2-7.6,1-2.1,2.7-3.7,5.1-4.9,2.4-1.1,6.3-1.7,11.5-1.7s8.3,.3,12.2,1c3.9,.7,8,1.5,12.2,2.4,.3,3.6,.5,6.8,.5,9.8s.3,5.9,1,8.8c18.6,.3,36.9,.5,54.9,.5h206.3c10.1,0,20.8-.2,32.2-.5,11.4-.3,21.5,1.3,30.3,4.9,1,11.1,2.4,22,4.4,32.7,2,10.7,2.9,21.7,2.9,32.7-4.2,.3-8.5,.7-12.7,1-4.2,.3-8.6,.5-13.2,.5s-11.2-.2-16.8-.5c-5.7-.3-11.5-.5-17.3-.5-21.8,.7-43.5,1-64.9,1H217.3c-21.5,0-43.3-.3-65.4-1-2.9,.7-5,2-6.3,4.2-1.3,2.1-2.2,4.6-2.7,7.3-.5,2.8-.8,5.5-1,8.3-.2,2.8-.7,5.3-1.7,7.6-7.2,0-14.1-.4-20.8-1.2-6.7-.8-13.3-2.4-19.8-4.6,0-3.6,0-6.9-.2-10-.2-3.1-.2-6.4-.2-10-8.1,0-16.1,1-23.9,2.9-7.8,2-15.5,4.4-22.9,7.3-1.3,1-2.8,1.5-4.4,1.5-3.6,0-6.6-1.4-9-4.2-2.4-2.8-4.8-5.3-7.1-7.6Z"/><path class="c" d="M96.7,545.9c-1.6-3.6-3.2-7.2-4.6-10.7-1.5-3.6-2.2-7.3-2.2-11.2s.2-2.6,.5-3.9c.3-1.3,.7-2.8,1-4.4,4.9-14,10-27.7,15.4-41.3,5.4-13.5,11-27.1,16.8-40.8h147.7c26.5,0,53.3,.3,80.3,1,6.8,13.4,13.7,26.7,20.5,40,6.8,13.4,13.2,27.3,19,42,1.3,2.6,2,5.2,2,7.8,0,3.9-1.3,9.6-3.9,17.1-2.6,7.5-5.6,15.5-9,23.9-3.4,8.5-7,17.2-10.7,26.1-3.7,9-6.8,16.8-9,23.7-14.6,.7-28.9,1-42.7,1H130.4c-6.5-11.4-12.3-23-17.3-34.9-5-11.9-10.5-23.7-16.4-35.4Zm57.1-3.9c14,.7,27.8,1,41.3,1h123.3c2.6-6.5,5.1-12.8,7.3-18.8,2.3-6,4.2-12.3,5.9-18.8h-84.7c-25.9,0-52.5-.2-79.8-.5-2.6,4.6-5.7,9.6-9.3,15.1-3.6,5.5-5.4,11.2-5.4,17.1s.5,3.6,1.5,4.9Z"/><path class="c" d="M8.3,373.1c0-3.2-.6-7.2-1.7-11.7-1.1-4.6-1.7-8.9-1.7-13.2s.8-6,2.4-8.3c1.6-2.3,4.7-3.4,9.3-3.4,17.3,0,34.5,.2,51.8,.5,17.3,.3,34.7,.5,52.2,.5,34.8,0,69.4-.2,103.8-.5,34.3-.3,69.1-.5,104.3-.5,1-3.6,2-7.1,3.2-10.5,1.1-3.4,2.5-6.9,4.2-10.5,5.5,.3,10.7,1.5,15.6,3.7,4.9,2.1,9.6,4.7,14.2,7.8,4.6,3.1,9,6.3,13.4,9.8,4.4,3.4,8.7,6.6,12.9,9.5-2.9,10.4-5.8,20.7-8.5,30.8-2.8,10.1-5.9,20-9.5,29.8-6.5,.7-12.8,1.2-18.8,1.7-6,.5-12.3,.7-18.8,.7s-15-.2-22.5-.5c-7.5-.3-15.1-.5-23-.5h-50.3c-71.3,0-142.9-.5-214.8-1.5-.6,0-1.2,.2-1.7,.5-.5,.3-1.1,.5-1.7,.5-3.6,0-6.2-1.3-7.8-3.9-1.6-2.6-2.8-5.7-3.7-9.3-.8-3.6-1.3-7.3-1.5-11.2-.2-3.9-.6-7.3-1.2-10.3Z"/><path class="c" d="M9.8,275.4c1.6-11.4,4.5-22.5,8.5-33.2,4.1-10.7,7.9-21.3,11.5-31.7,9.4,.7,18.7,2.6,27.8,5.9,9.1,3.3,18.1,6.8,26.9,10.7-.3,11.1-2.6,22-6.8,32.7-4.2,10.7-7.8,21.3-10.7,31.7-6.2-1-11.5-1.9-15.9-2.7-4.4-.8-8.5-1.8-12.5-2.9-3.9-1.1-8.1-2.5-12.5-4.2-4.4-1.6-9.8-3.7-16.4-6.3Zm85,5.4c0-10.7,2.2-21.1,6.6-31,4.4-9.9,8.4-20.1,12-30.5,5.5-1.6,10.6-2.4,15.1-2.4h50.8c23.4,0,47,0,70.6-.2,23.6-.2,47.1-.2,70.6-.2h2.4c2.9,0,5.2-1.1,6.8-3.2,1.6-2.1,3-4.5,4.2-7.1,1.1-2.6,2.2-5,3.2-7.1,1-2.1,2.3-3.2,3.9-3.2,3.3,0,7.2,1.2,12,3.7,4.7,2.4,9.6,5.4,14.6,8.8,5.1,3.4,9.8,7.1,14.4,11,4.6,3.9,8.3,7.3,11.2,10.3-.3,4.9-1.2,9.7-2.7,14.4-1.5,4.7-3,9.4-4.6,13.9-1.6,4.6-3.3,9.1-4.9,13.7-1.6,4.6-2.8,9.3-3.4,14.2-6.8,2.6-13.3,3.9-19.5,3.9h-100.6c-11.7,0-23.4-.4-35.2-1.2-11.7-.8-23.4-1.2-35.2-1.2s-9.3,.5-14.2,1.5-9.6,2-14.2,2.9c-1.6,4.2-4,7.9-7.1,11-3.1,3.1-6.6,4.6-10.5,4.6s-6.4-1-10.5-2.9c-4.1-2-8.2-4.4-12.5-7.3-4.2-2.9-8.4-5.9-12.5-8.8-4.1-2.9-7.7-5.4-11-7.3Z"/><path class="c" d="M96.7,112.3c-1.6-3.6-3.2-7.2-4.6-10.7-1.5-3.6-2.2-7.3-2.2-11.2s.2-2.6,.5-3.9c.3-1.3,.7-2.8,1-4.4,4.9-14,10-27.7,15.4-41.3,5.4-13.5,11-27.1,16.8-40.8h147.7c26.5,0,53.3,.3,80.3,1,6.8,13.4,13.7,26.7,20.5,40,6.8,13.4,13.2,27.3,19,42,1.3,2.6,2,5.2,2,7.8,0,3.9-1.3,9.6-3.9,17.1-2.6,7.5-5.6,15.5-9,23.9-3.4,8.5-7,17.2-10.7,26.1-3.7,9-6.8,16.8-9,23.7-14.6,.7-28.9,1-42.7,1H130.4c-6.5-11.4-12.3-23-17.3-34.9-5-11.9-10.5-23.7-16.4-35.4Zm57.1-3.9c14,.7,27.8,1,41.3,1h123.3c2.6-6.5,5.1-12.8,7.3-18.8,2.3-6,4.2-12.3,5.9-18.8h-84.7c-25.9,0-52.5-.2-79.8-.5-2.6,4.6-5.7,9.6-9.3,15.1-3.6,5.5-5.4,11.2-5.4,17.1s.5,3.6,1.5,4.9Z"/></g><g><path class="b" d="M653.8,1514.8c-1.8-.9-3.3-1.7-4.6-2.6-1.3-.8-2.5-1.5-3.7-2-1.2-.5-2.5-.8-4-.9-1.4-.1-3.2,0-5.3,.3-11.4-.2-22.8-.2-34.2,0-11.4,.2-22.7,.2-34.2,0-2.2,0-4.7-.3-7.5-.8-5-8.1-9.8-16.4-14.5-24.9-.8-1.4-1.2-2.9-1.2-4.4,0-1.5,0-3,.3-4.5,.3-1.5,.6-3,1-4.5,.4-1.5,.7-3,.9-4.6,.8-2.2,1.2-4.6,1.4-7.1,.2-2.5,.9-4.9,2.1-7,1.8,.2,3.4,.8,4.7,1.7,1.4,.9,2.9,1.9,4.4,2.7,1.8,1.1,3.6,2.1,5.4,3,1.8,.9,3.5,2.1,5.1,3.7,.2,1.9,.2,3.7-.2,5.5-.3,1.8-.7,3.5-1.2,5.3-.5,1.8-1,3.5-1.5,5.3-.5,1.8-.9,3.5-1.1,5.3,12.1,.6,24,.7,35.8,.5,11.8-.2,23.7-.1,35.8,.3,1,.7,1.8,1.5,2.4,2.5,.6,1,1.2,2.1,1.7,3.2s1,2.4,1.4,3.6c.4,1.2,1,2.3,1.7,3.3,2-7.5,4-15,5.9-22.3,1.9-7.3,3.8-14.7,5.6-22.3,3.7,0,7.1,.8,10.3,2.5,3.2,1.7,6.5,3,10,4.2,.8,.2,1.3,.6,1.5,1.1,.2,.5,.3,1.1,.3,1.7s0,1.4-.2,2.1c-.2,.7-.3,1.4-.4,1.9-1.9,7.8-3.9,15.4-6,23-2.1,7.6-4.3,15.2-6.5,22.9-.3,1.3-.8,2.6-1.3,3.8-.6,1.2-1.3,2.4-2.2,3.7l-8-5.3Z"/><path class="b" d="M576,1441c.6-3.7,1.5-7.1,2.7-10.5,1.3-3.3,2.6-6.6,4.1-9.8,.8-.2,2.9-.3,6.3-.3h12.5c4.9,0,10.1,0,15.7,0,5.6,0,10.9,0,16,0s9.6,0,13.6-.2,6.7-.4,8.1-.7c1.2-.2,1.9-.8,2.2-1.7,.2-.9,.2-1.8-.2-2.6-.7-1.6-1.3-3.1-2-4.7-.7-1.6-1.9-2.6-3.8-2.9-8.6-.4-17.3-.6-25.9-.3-8.6,.2-17.3,.3-25.9,.3-.9,1.2-1.6,2.6-2.2,4.2-.6,1.6-1.7,2.7-3.2,3.3-3-1-5.8-2.4-8.4-4.3-2.6-1.9-5.3-3.6-8.2-5.2-.6-8.1,1.3-15.6,5.7-22.4,4.2-.8,8.5-1,12.7-.7,4.3,.3,8.6,.4,13,.2,7.6-.6,15.3-.6,22.9-.2,7.6,.4,15.3,.4,23.1,0,1.4-.9,2.3-2.1,2.7-3.7,.3-1.6,.9-3,1.7-4.2,3.1,1,6,2.4,8.7,4.3,2.7,1.9,5.5,3.8,8.2,5.7,1.1,.6,1.6,1.4,1.3,2.4-.2,1.1-.4,2.1-.7,3.1-.8,2.7-1.6,5.3-2.4,7.9-.8,2.6-1.7,5.2-2.6,7.9-.6,.1-1.3,.3-2.3,.7-1,.3-1.8,.6-2.3,.8,1.6,2.3,3.3,4.5,5.3,6.6,2,2.1,3.8,4.4,5.3,6.9-.8,3.9-2,7.6-3.7,11.2-1.7,3.6-3,7.3-3.9,11.2-3.7,1-7.3,1.4-11.1,1.2-3.7-.2-7.3-.2-10.9,0-8,0-16,0-23.9,.2-8,.1-16,.2-23.9,.2-.8,1-1.5,2-2.2,3.1-.7,1.1-1.4,2.2-2.1,3.4-1.9-.1-3.7-.5-5.4-1.2-1.7-.7-3.4-1.5-5.1-2.5-1.7-1-3.3-2-4.8-3.2-1.5-1.1-3.1-2.2-4.7-3.2Z"/><path class="b" d="M550.4,1367.6c-.8-3-1.4-6.1-1.8-9.2-.4-3.2-.7-6.3-.7-9.4v-3.3c2-.1,4-.2,6-.2h6c4.1,0,8.2,0,12.3,0,4.1,0,8.2,0,12.3,0h3.8c-.7-2.1-1.5-4.2-2.4-6.2-.9-2-1.9-4.1-2.9-6.1-1-2-2-4-3-6-1-2-1.9-4-2.7-6.1,.1-.6,.7-1.2,1.8-2.1,1.1-.8,2.5-1.7,4.2-2.7,1.7-.9,3.7-1.9,5.9-2.9,2.2-1,4.5-2,6.8-3,5.3-2.2,11.4-4.7,18.3-7.3,.9,0,1.7,.4,2.3,1.3,.7,.9,1.3,2,1.9,3.2,.6,1.3,1.2,2.6,1.8,3.8,.6,1.3,1.2,2.2,1.7,2.9,5.7-1,11.3-2.1,17-3.2,5.7-1.2,11.3-2.2,17-3.2,.4-.6,.8-1.3,1.1-2.2,.3-.9,.6-1.9,.9-2.8,.3-.9,.7-1.7,1.2-2.4,.5-.7,1.1-1,1.9-1s2.1,.4,3.7,1.2c1.6,.8,3.2,1.8,4.9,3,1.7,1.2,3.4,2.3,5.1,3.5s3,2.1,4.2,2.9c-1.2,3.5-2.3,7.1-3.2,10.6-.9,3.5-2.4,6.9-4.7,10.1-6.6,.9-13.2,1.9-19.8,3.1-6.5,1.2-13.1,2.5-19.6,3.9,1.2,1.3,2.1,2.6,2.6,3.8,.5,1.2,1.6,2.4,3.2,3.7h10.6c2.9,0,5.5-.3,8-.8,.8-1.3,1.4-2.7,2-4.2,.6-1.4,1.3-2.9,2.3-4.3,1.1,.6,2.7,1.4,4.7,2.4,2,1.1,3.9,2.2,5.8,3.4,1.9,1.2,3.5,2.5,5,3.7,1.4,1.3,2.2,2.4,2.2,3.4,0,3.5-.7,7-2.2,10.4-1.5,3.4-2.6,6.8-3.4,10.4-7.5,.1-15,.2-22.4,.3-7.4,.1-14.9,.2-22.4,.2-6.2,0-12.3,0-18.3-.2-6-.1-12-.2-18.1-.2s-11.5,0-17.2,.2c-5.7,.1-11.4,.2-17.2,.2-.7-.1-1.3-.2-2-.2s-1.3,0-2-.2c-.7-.1-1.2-.3-1.7-.7-.4-.3-.7-.9-.8-1.8Zm47-27.6c.8,1.2,1.4,2.3,2,3.2,.6,.9,1.4,1.6,2.5,2.2,1.1,.6,2.7,1,4.7,1.3,2,.3,4.8,.5,8.3,.5s4.9,0,7.1,0c2.2,0,3.8-.2,4.7-.4-1-3-2.5-6.1-4.5-9.4-2-3.3-3.6-6.3-4.8-9.1-1.7,.7-3.5,1.4-5.6,2.2-2,.8-4,1.7-6,2.7-1.9,.9-3.7,2-5.2,3.2-1.6,1.2-2.6,2.4-3.2,3.7Z"/><path class="b" d="M590.4,1293.9c-2.5-5-5.1-9.9-7.6-14.7s-4.7-9.8-6.7-15c1.4-4.9,3.1-9.6,5-14.3,1.9-4.7,3.7-9.4,5.3-14.1,.3-1.8,1.3-2.8,2.9-3.2,1.6-.3,3.2-.5,4.7-.5,7.8,.2,15.5,.4,23.2,.7,7.7,.2,15.5,.3,23.5,.3h6.8c2.3,0,4.7-.1,7.1-.3,1,0,1.7-.4,2.2-1.2,.5-.8,.9-1.6,1.3-2.6,.4-.9,.8-1.8,1.2-2.6,.4-.8,1.1-1.2,1.8-1.2s1.6,.5,3.3,1.4c1.8,.9,3.6,2,5.6,3.2,1.9,1.2,3.7,2.5,5.2,3.7,1.6,1.3,2.3,2.3,2.3,3.1,0,2.1-.2,4.2-.7,6.4-.5,2.2-1.2,4.2-2.2,6.1-.9,1.9-2,3.7-3.3,5.2-1.3,1.5-2.7,2.6-4.4,3.2,3.5,4,7.2,8,11,12-1.3,3.7-2.5,7.1-3.7,10.3-.9,2.8-1.8,5.5-2.7,8.1-.9,2.6-1.5,4.5-2,5.6-3,.6-6,.9-9,1.1-3,.2-6,.2-9.1,.2-4.5,0-9.1,0-13.6-.2-4.5-.1-9.1-.2-13.8-.2-2.7,0-5.3,0-8.1,.2-2.7,.1-5.5,.2-8.2,.2-5.8,0-11.6-.3-17.6-1Zm9.6-23.9h7.8c5.1,0,10.1,0,15.1,.2s10.1,.2,15.3,.2,4.4,0,6.6-.2c2.2-.1,4.3-.2,6.6-.3,.2,0,.4,0,.6,0,.2,0,.3,0,.4,0,.7,0,1.3-.3,1.8-.8,.6-.6,1-1.2,1.4-2,.4-.8,.7-1.5,.9-2.2,.2-.7,.3-1.2,.3-1.4,0-1.8-.9-3.2-2.7-4.4-1.8-1.2-3.6-1.7-5.2-1.7h-.7c-4.4,0-8.8,0-13.1-.2-4.3-.1-8.7-.2-13.1-.2s-6.5,0-9.8,.2c-3.3,.1-6.6,.2-9.8,.3-.8,1.4-1.4,2.9-2,4.3-.6,1.4-1.2,2.8-1.8,4.2,.2,.6,.5,1.2,.8,1.9,.3,.7,.6,1.4,.7,1.9Z"/><path class="b" d="M588.1,1220.6c-2.7-4.5-5.1-9.2-7.2-13.9-2.2-4.7-4.5-9.3-7.1-13.9,1.7-5.7,3.3-11.2,4.8-16.6,1.6-5.4,3.1-10.9,4.7-16.5,1.9,.1,3.6,.5,5.2,1.2,1.6,.7,3.2,1.4,4.7,2.3,1.6,.9,3.1,1.8,4.7,2.8,1.6,1,3.1,1.9,4.7,2.7-.1,2.4-.5,4.8-1.2,7.1-.7,2.3-1.5,4.5-2.4,6.7-.9,2.2-1.7,4.5-2.4,6.7-.7,2.3-1.2,4.6-1.4,7.1,3.5,.2,7.1,.3,10.6,.3h10.6c.4-1,.9-2,1.3-3,.4-1,.8-2,1.2-3-1.9-1.6-3.7-3-5.5-4.5-1.8-1.4-3.6-2.9-5.5-4.5,1.7-3.9,3.3-7.8,5-11.6,1.7-3.9,3.6-7.6,5.8-11.1,3.1-.1,6.1-.2,9.1-.3,3-.1,6-.2,9-.2,4.7,0,9.3,0,13.8,.2,4.5,.1,9.1,.2,13.6,.2,2.6,4.8,5,9.6,7.3,14.5,2.3,4.9,4.5,9.9,6.6,14.9,0,3.3-.6,6.6-1.7,10-1.2,3.3-2.2,6.5-3.2,9.6-.9,3-1.7,6-2.5,9.1-.8,3.1-2.1,6-4,8.6-1.4-.8-3.2-1.8-5.2-3.1-2-1.3-3.9-2.6-5.7-3.9s-3.4-2.6-4.7-3.7c-1.3-1.2-2.2-2.1-2.5-2.7,1.3-5,3-9.9,5.1-14.6,2.1-4.8,3.7-9.6,4.9-14.6-2.7,0-5.3,0-7.9,0-2.6,0-5.2,0-7.9,0s-2.1,0-3.4,0c-1.3,0-2.4,0-3.5,.2-1.1,.2-1.9,.7-2.7,1.3-.7,.7-1.1,1.7-1.1,3s.4,1.9,1.1,2.8c.7,.9,1.6,1.7,2.6,2.6s2,1.6,3,2.4c1,.8,1.8,1.7,2.3,2.7-.9,4.2-2.4,8.1-4.6,11.8-2.2,3.7-4.1,7.4-5.9,11.3-4.2,0-8.4,0-12.7,.2-4.3,.1-8.5,.2-12.7,.2s-5.7,0-8.5,0c-2.8,0-5.6-.2-8.5-.4Z"/><path class="b" d="M543.7,1092.2c-.8-1.2-1-2.6-.7-4.1,.3-1.5,.8-3,1.3-4.4,1.4-4.1,2.8-8.2,4.1-12.4,1.3-4.2,2.5-8.3,3.7-12.5,.3-1.1,.6-2.3,.8-3.5,.2-1.2,.9-2.2,2.2-3,3.5,.9,7,2.1,10.2,3.7,3.3,1.6,6.5,3.3,9.7,5.1-1.6,6.3-3.4,12.5-5.5,18.6-2.1,6.1-3.9,12.4-5.3,18.9,14.2,.2,28.3,.3,42.2,.2,14-.1,28,0,42,.2,1.4-3.9,2.9-7.8,4.3-11.7,1.4-3.9,2.8-7.8,4.2-11.7-13.4-.4-26.9-.4-40.6,0,.1,2.8,.1,5.5,0,8.2,0,2.7-.2,5.5-.4,8.2-3.5-.2-7-.7-10.3-1.5-3.3-.8-6.8-1.3-10.3-1.5-.2-.9-.5-1.7-.8-2.5-.3-.8-.5-1.6-.5-2.5,.2-5.7,.4-11.3,.4-16.9,0-5.6,0-11.2,0-16.9,3.7-.6,7.3-.7,11.1-.5,3.7,.2,7.5,.3,11.2,.3,7.1,.1,14.2,0,21.4,0,7.1-.2,14.3-.1,21.5,0,2.6,4,4.9,8.1,7.1,12.2,2.2,4.2,4.5,8.2,6.9,12.2,.6,.9,1.1,1.8,1.7,2.7,.6,.9,1.1,1.9,1.6,2.9,.4,1,.7,2,.8,3.1,.1,1.1,0,2.1-.5,3.2-2.3,6.3-4.7,12.6-7.1,18.8-2.4,6.2-4.9,12.5-7.3,18.8-16.5,.2-32.9,.3-49.3,.2-16.3,0-32.7-.2-49.1-.4-.9-1-1.8-2-2.7-3-.9-1-1.8-2-2.7-3-2.1-4.7-4.6-9-7.5-13-2.9-4-5.6-8.3-8.1-12.7Z"/><path class="b" d="M588.9,1013.2c-1.3-1.4-2.8-2.8-4.3-4.1-1.6-1.3-3.1-2.6-4.6-3.9-1.5-1.3-2.9-2.7-4.3-4.2-1.4-1.4-2.6-3-3.6-4.8,6-2.5,12-4.8,18.2-6.7,6.1-1.9,12.3-4,18.5-6.2,.3-.1,.7-.2,1.1-.3,.4-.1,.7-.2,.9-.2,.8,0,2.1,.7,3.9,2.2,1.8,1.4,3.7,3.2,5.7,5.2,1.9,2.1,3.6,4.2,5.1,6.4,1.4,2.2,2.2,4,2.3,5.5-2.1,1-4.2,1.8-6.4,2.5-2.2,.7-4.4,1.3-6.6,1.8-2.3,.6-4.5,1.2-6.7,1.8-2.2,.7-4.4,1.5-6.5,2.5l-.2,1.5c2.3,.7,5.7,1.1,10.1,1.2,4.4,.2,9,.2,13.9,.2,4.9,0,9.6-.1,14.3-.2,4.7-.1,8.4-.2,11.3-.2,1.4-4.5,2.6-9.1,3.6-13.7,.9-4.6,2.2-9.2,3.7-13.7,3.9,1.2,7.5,3.1,10.7,5.6,3.3,2.5,6.3,5.1,9.2,7.7-1.9,6.5-3.5,13.2-4.9,19.9-1.4,6.8-3.6,13.1-6.6,19.1-3.9,0-7.8,0-11.6,.2-3.9,.1-7.8,.2-11.6,.2-7.8,0-15.5,0-23.3-.2-7.8-.1-15.5-.2-23.3-.2-.1,.3-.3,.9-.6,1.7-.3,.8-.6,1.6-.9,2.3-.3,.8-.7,1.4-1,2-.3,.6-.6,.8-.8,.8-1.9,0-3.6-.4-5.2-1.1-1.6-.7-3.2-1.6-4.7-2.7-1.5-1.1-2.9-2.2-4.3-3.4-1.4-1.2-2.9-2.3-4.4-3.3,.8-3.4,1.7-6.8,2.7-10.1,1-3.3,2.2-6.5,3.5-9.7,1.2-.3,2.5-.6,3.9-.8,1.4-.2,2.7-.4,3.9-.7Z"/><path class="b" d="M590.4,973.2c-2.5-5-5.1-9.9-7.6-14.7s-4.7-9.8-6.7-15c1.4-4.9,3.1-9.6,5-14.3,1.9-4.7,3.7-9.4,5.3-14.1,.3-1.8,1.3-2.8,2.9-3.2,1.6-.3,3.2-.5,4.7-.5,7.8,.2,15.5,.4,23.2,.7,7.7,.2,15.5,.3,23.5,.3h6.8c2.3,0,4.7-.1,7.1-.3,1,0,1.7-.4,2.2-1.2,.5-.8,.9-1.6,1.3-2.6,.4-.9,.8-1.8,1.2-2.6,.4-.8,1.1-1.2,1.8-1.2s1.6,.5,3.3,1.4c1.8,.9,3.6,2,5.6,3.2,1.9,1.2,3.7,2.5,5.2,3.7,1.6,1.3,2.3,2.3,2.3,3.1,0,2.1-.2,4.2-.7,6.4-.5,2.2-1.2,4.2-2.2,6.1-.9,1.9-2,3.7-3.3,5.2-1.3,1.5-2.7,2.6-4.4,3.2,3.5,4,7.2,8,11,12-1.3,3.7-2.5,7.1-3.7,10.3-.9,2.8-1.8,5.5-2.7,8.1-.9,2.6-1.5,4.5-2,5.6-3,.6-6,.9-9,1.1-3,.2-6,.2-9.1,.2-4.5,0-9.1,0-13.6-.2-4.5-.1-9.1-.2-13.8-.2s-5.3,0-8.1,.2c-2.7,.1-5.5,.2-8.2,.2-5.8,0-11.6-.3-17.6-1Zm9.6-23.9h7.8c5.1,0,10.1,0,15.1,.2s10.1,.2,15.3,.2,4.4,0,6.6-.2c2.2-.1,4.3-.2,6.6-.3,.2,0,.4,0,.6,0,.2,0,.3,0,.4,0,.7,0,1.3-.3,1.8-.8,.6-.6,1-1.2,1.4-2,.4-.8,.7-1.5,.9-2.2,.2-.7,.3-1.2,.3-1.4,0-1.8-.9-3.2-2.7-4.4-1.8-1.2-3.6-1.7-5.2-1.7h-.7c-4.4,0-8.8,0-13.1-.2-4.3-.1-8.7-.2-13.1-.2s-6.5,0-9.8,.2c-3.3,.1-6.6,.2-9.8,.3-.8,1.4-1.4,2.9-2,4.3-.6,1.4-1.2,2.8-1.8,4.2,.2,.6,.5,1.2,.8,1.9,.3,.7,.6,1.4,.7,1.9Z"/><path class="b" d="M583.8,898.2c-1.1-.9-2.4-1.8-3.7-2.7-1.4-.9-1.8-2.3-1.2-4.1,.8-3,1.6-6,2.3-8.9,.8-2.9,1.8-5.8,3.2-8.6,.4-.2,1-.4,1.6-.7,.6-.2,1.1-.4,1.4-.5,0-.4,0-1,0-1.6,0-.6,0-1.1,0-1.4-1.4-1.7-2.9-3.3-4.5-4.8s-2.9-3.3-4-5.2c.2-2,.6-3.9,1.2-5.8,.6-1.9,1.3-3.7,2.1-5.6,.8-1.8,1.6-3.7,2.3-5.5,.8-1.8,1.4-3.7,1.8-5.6l2.7-2c13.2,.6,26.2,.7,39.1,.6,12.9-.2,25.9,0,39.1,.6,2,4,4.1,8.1,6.3,12.2,2.2,4.2,4.4,8.7,6.6,13.7,.6,1.2,.7,2.4,.4,3.6-.3,1.2-.5,2.2-.7,3.2-1.6,4.8-3.1,9.4-4.7,13.9-1.6,4.5-3.1,9.1-4.4,13.7-11.5,.6-23,.7-34.6,.6-11.5-.2-23-.2-34.6-.2-1,1.2-1.8,2.7-2.4,4.4-.6,1.7-1.7,2.9-3.2,3.6-2.2-.7-4.3-1.7-6.1-3.2-1.9-1.4-3.8-2.7-5.7-3.8Zm15.8-31.2c.6,1.9,1.6,3.5,3.2,4.7,1.6,1.3,3.4,1.8,5.4,1.6,8,.1,15.9,.1,23.9,0,7.9,0,15.9-.2,23.9-.4,.9-2.1,1.7-4.2,2.4-6.3,.7-2.1,1.5-4.2,2.2-6.3-9.9,0-19.7,0-29.5-.2-9.8-.1-19.6,.1-29.5,.7-.9,2.2-1.6,4.3-2,6.1Z"/><path class="b" d="M588.8,825.1c-2.7-4.7-5.1-9.4-7.2-14.3-2.2-4.9-4.4-9.7-6.7-14.5,.8-2.4,1.7-5.5,2.8-9.1,1.1-3.6,2.3-7.1,3.7-10.5,1.3-3.4,2.7-6.3,4-8.7,1.3-2.4,2.5-3.7,3.7-3.7h.8c14.3,0,28.5,0,42.6,0,14.1,0,28.4,0,42.8,0s4-.3,6-.9c2-.6,4.1-.9,6.3-.9s2.5,1,4.1,3.1c1.6,2.1,3.2,4.4,4.9,7.1s3.2,5.3,4.7,8c1.4,2.7,2.6,4.6,3.5,5.8,.8,.9,1.3,1.8,1.5,2.8,.2,1,.3,2.1,.3,3.2,0,5.7-.4,11.4-1.1,17.1-.7,5.8-1.2,11.5-1.4,17.3-3.7-.2-7.2-1-10.6-2.3-3.4-1.3-6.7-2.8-9.9-4.3,.6-5.4,1.1-10.8,1.7-16,.6-5.3,1.2-10.6,1.8-15.9-3.2,.6-6.5,.9-9.9,1-3.4,.1-6.7,.3-9.9,.5,.6,.9,1.4,1.9,2.6,3,1.2,1.1,2.3,2.2,3.5,3.4,1.2,1.2,2.2,2.4,3.1,3.5,.9,1.1,1.3,2.2,1.3,3,0,1.9-.5,3.7-1.4,5.5-.9,1.8-1.7,3.6-2.2,5.4-1.2,2-2.2,4.2-2.8,6.5-.7,2.3-1.8,4.4-3.5,6-11.7,.3-23.5,.5-35.2,.4-11.7,0-23.4,.1-35.2,.6h-4c-.9,0-1.7-.1-2.6-.3-.8-.2-1.5-.8-2.1-1.7Zm7.5-23.1c2.8,0,5.5,0,8.3,0,2.8,0,5.5,0,8.3,0,13.5,0,27-.2,40.4-.5,1.3-2.5,2.5-5.2,3.5-8-.6-.7-1.2-1.3-1.8-2-.7-.7-1.3-1.3-1.8-1.9-3.4-.2-6.8-.3-10.1-.3h-10.1c-5.3,0-10.6,0-15.8,.2-5.2,.1-10.5,.2-15.8,.2-1.2,1.9-2.2,3.8-3,5.9-.8,2.1-1.4,4.2-2,6.4Z"/><path class="b" d="M590.4,752.9c-2.5-5-5.1-9.9-7.6-14.7-2.5-4.8-4.7-9.8-6.7-15,1.4-4.9,3.1-9.6,5-14.3,1.9-4.7,3.7-9.4,5.3-14.1,.3-1.8,1.3-2.8,2.9-3.2,1.6-.3,3.2-.5,4.7-.5,7.8,.2,15.5,.4,23.2,.7,7.7,.2,15.5,.3,23.5,.3h6.8c2.3,0,4.7-.1,7.1-.3,1,0,1.7-.4,2.2-1.2,.5-.8,.9-1.6,1.3-2.6,.4-.9,.8-1.8,1.2-2.6,.4-.8,1.1-1.2,1.8-1.2s1.6,.5,3.3,1.4c1.8,.9,3.6,2,5.6,3.2,1.9,1.2,3.7,2.5,5.2,3.7,1.6,1.3,2.3,2.3,2.3,3.1,0,2.1-.2,4.2-.7,6.4-.5,2.2-1.2,4.2-2.2,6.1-.9,1.9-2,3.7-3.3,5.2-1.3,1.5-2.7,2.6-4.4,3.2,3.5,4,7.2,8,11,12-1.3,3.7-2.5,7.1-3.7,10.3-.9,2.8-1.8,5.5-2.7,8.1-.9,2.6-1.5,4.5-2,5.6-3,.6-6,.9-9,1.1-3,.2-6,.2-9.1,.2-4.5,0-9.1,0-13.6-.2-4.5-.1-9.1-.2-13.8-.2s-5.3,0-8.1,.2c-2.7,.1-5.5,.2-8.2,.2-5.8,0-11.6-.3-17.6-1Zm9.6-23.9h7.8c5.1,0,10.1,0,15.1,.2s10.1,.2,15.3,.2,4.4,0,6.6-.2c2.2-.1,4.3-.2,6.6-.3,.2,0,.4,0,.6,0,.2,0,.3,0,.4,0,.7,0,1.3-.3,1.8-.8,.6-.6,1-1.2,1.4-2,.4-.8,.7-1.5,.9-2.2,.2-.7,.3-1.2,.3-1.4,0-1.8-.9-3.2-2.7-4.4-1.8-1.2-3.6-1.7-5.2-1.7h-.7c-4.4,0-8.8,0-13.1-.2-4.3-.1-8.7-.2-13.1-.2s-6.5,0-9.8,.2c-3.3,.1-6.6,.2-9.8,.3-.8,1.4-1.4,2.9-2,4.3-.6,1.4-1.2,2.8-1.8,4.2,.2,.6,.5,1.2,.8,1.9,.3,.7,.6,1.4,.7,1.9Z"/><path class="b" d="M590.4,679.6c-2.5-5-5.1-9.9-7.6-14.7-2.5-4.8-4.7-9.8-6.7-15,1.4-4.9,3.1-9.6,5-14.3,1.9-4.7,3.7-9.4,5.3-14.1,.3-1.8,1.3-2.8,2.9-3.2,1.6-.3,3.2-.5,4.7-.5,7.8,.2,15.5,.4,23.2,.7,7.7,.2,15.5,.3,23.5,.3h6.8c2.3,0,4.7-.1,7.1-.3,1,0,1.7-.4,2.2-1.2,.5-.8,.9-1.6,1.3-2.6,.4-.9,.8-1.8,1.2-2.6,.4-.8,1.1-1.2,1.8-1.2s1.6,.5,3.3,1.4c1.8,.9,3.6,2,5.6,3.2,1.9,1.2,3.7,2.5,5.2,3.7,1.6,1.3,2.3,2.3,2.3,3.1,0,2.1-.2,4.2-.7,6.4-.5,2.2-1.2,4.2-2.2,6.1-.9,1.9-2,3.7-3.3,5.2-1.3,1.5-2.7,2.6-4.4,3.2,3.5,4,7.2,8,11,12-1.3,3.7-2.5,7.1-3.7,10.3-.9,2.8-1.8,5.5-2.7,8.1-.9,2.6-1.5,4.5-2,5.6-3,.6-6,.9-9,1.1-3,.2-6,.2-9.1,.2-4.5,0-9.1,0-13.6-.2-4.5-.1-9.1-.2-13.8-.2s-5.3,0-8.1,.2c-2.7,.1-5.5,.2-8.2,.2-5.8,0-11.6-.3-17.6-1Zm9.6-23.9h7.8c5.1,0,10.1,0,15.1,.2s10.1,.2,15.3,.2,4.4,0,6.6-.2c2.2-.1,4.3-.2,6.6-.3,.2,0,.4,0,.6,0,.2,0,.3,0,.4,0,.7,0,1.3-.3,1.8-.8,.6-.6,1-1.2,1.4-2,.4-.8,.7-1.5,.9-2.2,.2-.7,.3-1.2,.3-1.4,0-1.8-.9-3.2-2.7-4.4-1.8-1.2-3.6-1.7-5.2-1.7h-.7c-4.4,0-8.8,0-13.1-.2-4.3-.1-8.7-.2-13.1-.2s-6.5,0-9.8,.2c-3.3,.1-6.6,.2-9.8,.3-.8,1.4-1.4,2.9-2,4.3-.6,1.4-1.2,2.8-1.8,4.2,.2,.6,.5,1.2,.8,1.9,.3,.7,.6,1.4,.7,1.9Z"/><path class="b" d="M588.9,579.6c-1.3-1.4-2.8-2.8-4.3-4.1-1.6-1.3-3.1-2.6-4.6-3.9-1.5-1.3-2.9-2.7-4.3-4.2-1.4-1.4-2.6-3-3.6-4.8,6-2.5,12-4.8,18.2-6.7,6.1-1.9,12.3-4,18.5-6.2,.3-.1,.7-.2,1.1-.3,.4-.1,.7-.2,.9-.2,.8,0,2.1,.7,3.9,2.2,1.8,1.4,3.7,3.2,5.7,5.2,1.9,2.1,3.6,4.2,5.1,6.4,1.4,2.2,2.2,4,2.3,5.5-2.1,1-4.2,1.8-6.4,2.5-2.2,.7-4.4,1.3-6.6,1.8-2.3,.6-4.5,1.2-6.7,1.8-2.2,.7-4.4,1.5-6.5,2.5l-.2,1.5c2.3,.7,5.7,1.1,10.1,1.2,4.4,.2,9,.2,13.9,.2,4.9,0,9.6-.1,14.3-.2,4.7-.1,8.4-.2,11.3-.2,1.4-4.5,2.6-9.1,3.6-13.7,.9-4.6,2.2-9.2,3.7-13.7,3.9,1.2,7.5,3.1,10.7,5.6,3.3,2.5,6.3,5.1,9.2,7.7-1.9,6.5-3.5,13.2-4.9,19.9-1.4,6.8-3.6,13.1-6.6,19.1-3.9,0-7.8,0-11.6,.2-3.9,.1-7.8,.2-11.6,.2-7.8,0-15.5,0-23.3-.2-7.8-.1-15.5-.2-23.3-.2-.1,.3-.3,.9-.6,1.7-.3,.8-.6,1.6-.9,2.3-.3,.8-.7,1.4-1,2-.3,.6-.6,.8-.8,.8-1.9,0-3.6-.4-5.2-1.1-1.6-.7-3.2-1.6-4.7-2.7-1.5-1.1-2.9-2.2-4.3-3.4-1.4-1.2-2.9-2.3-4.4-3.3,.8-3.4,1.7-6.8,2.7-10.1,1-3.3,2.2-6.5,3.5-9.7,1.2-.3,2.5-.6,3.9-.8,1.4-.2,2.7-.4,3.9-.7Z"/><path class="b" d="M582.5,477.4h78.4c1,0,2.2,1,3.6,3.1,1.4,2.1,2.8,4.6,4.3,7.6,1.5,3,3,6.1,4.5,9.4s2.8,6.1,3.9,8.4c.4,.8,.7,1.6,.7,2.3s-.4,2.6-1.3,5.2c-.9,2.6-2,5.4-3.2,8.6-1.3,3.2-2.6,6.3-4.1,9.5-1.4,3.2-2.8,5.8-4,7.9h-75.3c-1.2-3.5-2.4-7-3.7-10.5-1.2-3.4-2.5-6.8-3.8-10.1-1.5,1.2-3,2.8-4.3,4.7-1.3,1.9-2.7,4-4.2,6.2-1.5,2.3-3.2,4.6-5.1,6.9-1.9,2.3-4.2,4.5-6.8,6.6-1.2-1-2.7-2.2-4.6-3.5s-3.6-2.7-5.2-4.2c-1.7-1.4-3.1-2.8-4.3-4.2-1.2-1.3-1.8-2.5-1.8-3.5s.3-2.1,1-2.7c5.8-7.8,11.6-15.5,17.4-23.3,5.8-7.8,11.4-15.8,16.7-24l1.3-.5Zm11,38.1c7.3,0,14.7-.1,22-.3,7.4-.2,14.7-.3,22-.3h6.6c2.2,0,4.4,0,6.6,.2,1.3-2,2.4-4,3.2-6.1,.8-2.1,1.6-4.3,2.4-6.5-3.3-.2-6.6-.3-9.9-.3h-10.1c-6.8,0-13.5,0-20.1,.2-6.6,.1-13.3,.2-19.9,.2s-3.8,.8-4.9,2.5c-1.1,1.7-1.9,3.4-2.4,5.2,.8,.9,1.5,1.8,2.2,2.7,.7,.9,1.4,1.9,2.2,2.7Z"/></g></svg>